<svg xmlns="http://www.w3.org/2000/svg" viewBox="0 0 24 24" width="24" height="24" color="currentColor" fill="none">
    <defs />
    <path fill="#141B34" d="M6.25,15.766 C5.713,15.606 5.329,15.16 5.265,14.573 C5.155,13.552 5.592,12.452 6.296,11.736 L5.967,8.396 C5.844,7.139 5.745,6.136 5.75,5.334 C5.756,4.512 5.869,3.803 6.242,3.174 C6.918,2.037 8.007,1.597 9.055,1.431 C9.834,1.307 10.689,1.324 11.409,1.337 C11.619,1.341 11.818,1.345 12,1.345 C12.182,1.345 12.381,1.341 12.591,1.337 C13.311,1.324 14.166,1.307 14.945,1.431 C15.993,1.597 17.082,2.037 17.758,3.174 C18.131,3.803 18.244,4.512 18.25,5.334 C18.255,6.136 18.156,7.139 18.033,8.396 L17.704,11.738 C18.407,12.453 18.843,13.552 18.733,14.572 C18.669,15.159 18.286,15.605 17.75,15.764 L17.75,22.078 C17.75,22.492 17.414,22.828 17,22.828 C16.586,22.828 16.25,22.492 16.25,22.078 L16.25,18.828 L7.75,18.828 L7.75,22.078 C7.75,22.492 7.414,22.828 7,22.828 C6.586,22.828 6.25,22.492 6.25,22.078 Z M7.464,8.292 L7.726,10.945 C9.108,10.552 10.645,10.328 11.999,10.328 C13.353,10.328 14.891,10.552 16.274,10.945 L16.536,8.292 C16.665,6.982 16.755,6.058 16.75,5.344 C16.745,4.641 16.646,4.24 16.468,3.941 C16.107,3.333 15.519,3.041 14.71,2.913 C14.075,2.812 13.411,2.824 12.718,2.837 L12.717,2.837 C12.482,2.841 12.243,2.845 12,2.845 C11.757,2.845 11.518,2.841 11.283,2.837 L11.282,2.837 C10.589,2.824 9.925,2.812 9.29,2.913 C8.481,3.041 7.893,3.333 7.532,3.941 C7.354,4.24 7.255,4.641 7.25,5.344 C7.245,6.058 7.335,6.982 7.464,8.292 Z M7.039,14.329 L16.961,14.329 C16.974,14.328 16.987,14.328 17,14.328 C17.013,14.328 17.026,14.328 17.039,14.329 L17.248,14.329 C17.279,13.597 16.738,12.655 16.17,12.479 C14.84,12.066 13.32,11.829 12,11.829 C10.68,11.829 9.16,12.066 7.831,12.479 C7.261,12.655 6.719,13.6 6.752,14.329 L6.961,14.329 C6.974,14.328 6.987,14.328 7,14.328 C7.013,14.328 7.026,14.328 7.039,14.329 Z M16.25,15.829 L7.75,15.829 L7.75,17.328 L16.25,17.328 Z" />
</svg>