<?xml version="1.0" encoding="utf-8"?>
<!-- Generator: Adobe Illustrator 28.0.0, SVG Export Plug-In . SVG Version: 6.00 Build 0)  -->
<svg version="1.1" id="Layer_1" xmlns="http://www.w3.org/2000/svg" xmlns:xlink="http://www.w3.org/1999/xlink" x="0px" y="0px"
	 viewBox="0 0 5000 5000" style="enable-background:new 0 0 5000 5000;" xml:space="preserve">
<style type="text/css">
	.st0{fill:#D0F6FD;}
	.st1{fill:url(#SVGID_1_);}
	.st2{fill:#130303;}
	.st3{fill:#070101;}
	.st4{fill:#54D7FE;}
	.st5{fill:#FFFFFF;}
	.st6{fill:#75DCFE;}
	.st7{fill:#BEF0FD;}
	.st8{fill:#EFF9FB;}
	.st9{fill:#05C0FF;}
	.st10{fill:#FF2E2A;}
	.st11{fill:url(#SVGID_00000125593783928358314880000006831343813647714494_);}
	.st12{fill:#ED141D;}
	.st13{fill:#C5C5C8;}
	.st14{fill:#C41E22;}
	.st15{fill:#220102;}
	.st16{fill:#280605;}
	.st17{fill:url(#SVGID_00000101793873707459192840000013851445447997549232_);}
	.st18{fill:#FFD302;}
	.st19{fill:#F47F13;}
	.st20{fill:url(#SVGID_00000077307049651916956560000008595677261232770438_);}
	.st21{fill:#F65964;}
	.st22{fill:url(#SVGID_00000175302602249522359020000008438157260431179921_);}
	.st23{fill:#FF83A2;}
	.st24{fill:url(#SVGID_00000178166526996501145870000003030348908571360432_);}
	.st25{fill:url(#SVGID_00000158750592084427710370000014372342156080375690_);}
	.st26{fill:url(#SVGID_00000129901255100024583670000007130792243258563752_);}
	.st27{fill:url(#SVGID_00000158004488339861413580000013000296895903541415_);}
	.st28{fill:#370503;}
	.st29{fill:url(#SVGID_00000163067084267739609790000008838284657687751085_);}
</style>
<path class="st0" d="M0,0h5000v5000H0V0z"/>
<linearGradient id="SVGID_1_" gradientUnits="userSpaceOnUse" x1="2300.344" y1="3277.4795" x2="2319.0549" y2="3313.1609" gradientTransform="matrix(4 0 0 -4 -4620 14120)">
	<stop  offset="0" style="stop-color:#000000"/>
	<stop  offset="1" style="stop-color:#200503"/>
</linearGradient>
<path class="st1" d="M4476.6,950c11.5-4.1,23-8.2,34.9-10.7c31.2-6.6,220.7-36.3,233.7-30.1c4.5,2.1,8.6,7.5,9.2,12.4
	c2.7,20.7-20.2,55.4-29.9,73.9c-4.4-7.3-4.1-13.1-4.1-21.5l0-3.5l-5.3,0.4l18-41c-38.3,2.9-77.6,10.3-115.7,15.8
	c-41.5,6-85.3,10.2-125.8,20.6C4483.5,961.4,4480.8,958.2,4476.6,950z"/>
<path class="st2" d="M4221.6,1197.3l140.8-148.1c27.1-28.2,54-60.1,84.6-84.6c8.2-6.6,19.9-10.5,29.6-14.5c4.2,8.2,6.9,11.4,15,16.3
	c-12.2,6.4-24.9,12.6-35.7,21.2c-26.1,20.8-50,50.6-73.1,74.9l-151.7,161.2C4227,1214.7,4223.6,1206.9,4221.6,1197.3z"/>
<path class="st3" d="M4715.1,970.8l5.3-0.4l0,3.5c0,8.4-0.3,14.3,4.1,21.5l-113.8,234.8l-71.3,149.4
	c-18.5,39.3-36.1,80.2-57.3,118.2c-4.7,8.5-10.3,16.2-17.8,22.3c-3.6,3.9-5.1,3.4-10.1,4.5l-6.4-4.1l1.5-2l2.5-3.5
	c37.4-50.8,57.6-112.6,84.7-168.7l110.5-232.6L4715.1,970.8z"/>
<path class="st4" d="M3471.8,3744.9l2.9-2.6l107.1,62.3l4.1,1.4c18.5,6.4,36.1,16.4,54.4,23.7c35.6,14.1,74,20,111.9,22.9
	c-13.4,16.7-25.6,35.4-40.6,50.5c-11.3,11.5-25.3,21.3-38.2,31.1c-74.3,56.7-157.7,83.2-248.6,100.1l-10.6-0.8l37.7-36.1
	c35.4-38.7,73.3-76.4,70.7-132.3c-7.1-31.7-21.1-59-39.3-85.8c8.2,1.2,18.2,4.5,25.8,1.2C3504.9,3768.6,3481.6,3754.3,3471.8,3744.9
	z"/>
<path class="st5" d="M3238.6,951.9c15.5-19,51.9-28.5,75.7-30.6c29.4-2.6,62.9,11.4,84.9,30.6c21.1,18.4,41.6,55.1,44.3,83.2
	c0.7,7.5,0.1,15-1.7,22.3c-3,1.9-8.4,19.3-10.4,23.6c-16.1,35.1-45.8,57.4-81.7,69.9l-3.7,1.2c-19.8,6.8-47,1.6-66.2-5.8
	c-34.6-13.3-56.6-39.8-70.5-73.2c-13.5-32.4-4.9-66.4,13.2-95.1c4.7-7.5,11.7-14.1,14.9-22.4L3238.6,951.9z"/>
<path class="st6" d="M327,1432.9l29.8-3.2c7.4-13.9,14.6-29.9,25.4-41.5c28.1-30.1,90.2-55.4,129.1-67
	c42.7-12.7,87.3-10.7,126.7,11.7c24.8,14.1,48.8,45.1,55.5,72.5c8.5,34.6-3.7,62.5-21.8,91.4c-7.6,12-18,21.3-28.3,31
	c-16.3-7.9-33.1-13.1-49.7-20.1c-16.3-6.9-31.8-15.5-48.5-21.8c-19.3-7.2-39.7-10.8-59.3-16.9l-93.7-27.9
	c-11.6-3.1-27.4-9.1-39.4-8.8L327,1432.9z"/>
<path class="st7" d="M3576.5,4162.5c0.9-4.2,0.3-2.8,2.3-6.4c21.9-39.5,39.8-60.4,78.9-83c10.9-6.3,21.9-13,34.1-16.2
	c14.7-3.9,37.6-8.6,51.1-0.9l-1.6,5.6c8.7,15.1,17.3,30.1,27.9,43.9c14.4,18.7,32.1,37.5,43.1,58.4l10.7,3.4l326-1.9
	c20.5-0.2,52.2-3.8,71.1,3.7c9.8,3.9,13.5,8.6,18.1,17.8c2.2,17-8.1,32.2-16.5,46.2c-72.7,10-146.8,2.6-219.9,2.8l-394.2,1.8
	c-19.9-0.2-49.4-0.2-63.9-16.1c-7.6-8.4-10.8-21-9.7-32.2c1-10.3,6.3-18.3,14.4-24.4c8.7-6.6,14.7-4.9,24.9-3.1L3576.5,4162.5z"/>
<path class="st8" d="M3576.5,4162.5c0.9-4.2,0.3-2.8,2.3-6.4c21.9-39.5,39.8-60.4,78.9-83c10.9-6.3,21.9-13,34.1-16.2
	c14.7-3.9,37.6-8.6,51.1-0.9l-1.6,5.6c8.7,15.1,17.3,30.1,27.9,43.9c14.4,18.7,32.1,37.5,43.1,58.4l10.7,3.4L3576.5,4162.5z"/>
<path class="st5" d="M1789.7,839.7c-3.1-6.1,0.2-12.2,2.1-18.6c7.1-23.6,23.1-50,45.7-61.6c22.1-11.3,45.1-10.7,68.1-3.1l3.4,1.2
	l3.1-2l-1.4-3.6c-5.4-16.4,5.9-53.6,14.6-67.5c5.5-8.8,14.5-16.5,22.1-23.5c28.9-26.7,59.8-42.7,98.5-50.9
	c67.7-14.3,129.4-6.1,187.6,32.2c44,28.9,67.9,65,78.3,116.7c-2.6,10.3-14.1,18.5-22.7,24c-20.3,12.8-55.8,7.9-79.5,8.3l-119.2,1.8
	l-133.8-0.3c-37.6,0.5-84.7,0.6-119.2,17l-3.3,1.6C1818.7,818.8,1803.8,829.4,1789.7,839.7z"/>
<path class="st5" d="M3742.8,4056.1l10.9,5.9c6.9-5.9,9.4-16,13.2-24.2c4-8.5,9-16.2,14.2-24c47.1-69.8,125.4-96.8,206.9-89.5
	c32.3,2.9,56.9,17.5,83.9,33.5c15.6,9.2,31.6,18.5,43.5,32.5c10.3,12.2,18.7,25.9,25.9,40.1c15.2,30.1,32.4,73.6,21.3,107
	c-3.3,10-8.5,19.1-13.7,28.2l-326,1.9l-10.7-3.4c-11-20.9-28.7-39.7-43.1-58.4c-10.7-13.9-19.2-28.8-27.9-43.9L3742.8,4056.1z"/>
<path class="st7" d="M4131.5,3701.3c35.1,9.4,80.9,4.5,117.3,5l372,2c27,0.6,54.7-4,81.5-1.6l114.4,0.2c14.1-0.1,39.1-3.8,51.8-0.2
	c4.1,1.2,13,9,16.1,12.1c10.3,10.4,20.8,29.6,19.8,44.6c-0.9,13.6-14.8,39.2-25.5,47.2c-8.4,6.3-18.9,9.1-29.2,9.9
	c-45.4,3.5-91.9,1.4-137.3,1.2l-186.8,0.2l-320.2-0.4c-57.1,0-113.9,1.5-170.8-2.7c-14.7-1.1-30.6-1-45-3.7l-19.7-4.6
	c32.5-10.2,65.8-22.9,94.2-42c5.2-1.7,11.9-7.2,16.4-10.4C4102.9,3742.1,4117.2,3724.7,4131.5,3701.3z"/>
<path class="st5" d="M4341.2,3356.8c25,1.3,55.1,0.1,78.8,8.3l3.1,2.8c6.5,5.7,16.9,8.7,25,11.9l49.2,20.6
	c69.7,32.2,142.3,84.9,177.9,154.8c14.6,28.7,22.5,62,26.2,93.9l0.9,57.7c-26.8-2.4-54.5,2.2-81.5,1.6l-372-2
	c-36.4-0.5-82.2,4.4-117.3-5c7.5-19.2,8-32,5.8-52.4c-1.5-13.7-3.7-22.5-11.9-34c-15.1-21-35.8-35.8-55.6-52l-99.8-79
	c54.1-53.6,129-83.9,201.4-104.1c22-6.2,44.9-13.4,67.5-16.8C4273.5,3357.8,4306.5,3358,4341.2,3356.8z"/>
<path class="st9" d="M3104.3,804.5c-27.5-13.8-57.7-25.8-88.4-30.1c-12.8-1.8-26.1-0.5-39-0.9c61-17.9,119.9-43.4,181.7-58.4
	c23.1-5.6,48-7.2,71.6-10.3c146.8-19.7,291.5-5.7,423.3,66.3c34.8,19,72.9,38.7,99.7,68.6c1,43.4,2.5,77.2,36.4,109.1
	c20.6,19.5,46.7,26.6,74.7,25.3c19-0.9,39.2-7.6,56.4-15.4c46.7,33.7,93.8,70.6,135.2,110.6c26.8,25.8,52.1,56.6,75.9,85.2
	c20.3,24.5,33.8,56.6,55.8,78.9c-33.4,42.6-80,76.1-112.4,119.2l-1.8,2.5c-11-5.6-23.2-22.9-32.7-31.9L3933,1219.3
	c-30.7-29.2-63-67.4-103.6-82.6c-17.4-6.5-35.1-6.5-53.4-6.2c-47,0.9-99.1,10.8-141.9,30.7l-1.5-4.1c-14.1-38.8-39.4-70.8-77.8-87.8
	c-30.4-13.5-81.3-24.5-113-12c1.8-7.2,2.4-14.8,1.7-22.3c-2.6-28.1-23.2-64.8-44.3-83.2c-22-19.2-55.5-33.2-84.9-30.6
	c-23.8,2.1-60.1,11.6-75.7,30.6c-15.7-25.3-30.3-52.8-48.3-76.5c-9.6-12.6-21.8-23.5-33.2-34.4L3104.3,804.5z"/>
<path class="st4" d="M3104.3,804.5c8-4.1,12.7-7.4,22.2-4.9c10.8,2.8,22,18.3,26.7,27.9c2.1,4.3,3,9,4,13.6L3104.3,804.5z"/>
<path class="st10" d="M4491.6,966.3c40.5-10.4,84.3-14.6,125.8-20.6c38.1-5.5,77.4-12.9,115.7-15.8l-18,41l-68,142.9l-110.5,232.6
	c-27.2,56.1-47.4,117.9-84.7,168.7l-2.5,3.5l-1.5,2l-128.3,28.9c-12.7,12.5-28.6,15.6-44.3,23.1c-17.1,8.2-33.3,18.1-50.9,25.3
	l-0.9,3.7c5.8,3.6,12.6,3.2,19.2,3.6c-32.4,14.4-62.8,30.7-92.5,50c-5.8,3.8-29.1,22.5-34.7,23c-4.7-7.4-9.7-9.6-17.5-13.3
	c-13.9,9.9-36.8,22.5-40.4,40.6c-3.2,15.7,1,30.6,10.2,43.3l3.5,4.6c-13.1,2.6-26.2,5.3-39.5,6.6c-15.4,1.5-99.8,3-105.1,7.2
	l-136.4,6.3l-152.5,4.6c-21.8,1.2-52.8,10.8-73.3,7.3c36.8-11.3,72.6-26,106.1-45.2c17.3-9.9,32.9-21.8,49.7-32.4
	c38.6-24.3,77.1-49.8,112.6-78.7c41.6-33.9,79.5-72.5,117.2-110.4l127.7-133.1l153.4-162l151.7-161.2c23.1-24.2,47-54.1,73.1-74.9
	C4466.7,978.9,4479.4,972.6,4491.6,966.3z"/>
<linearGradient id="SVGID_00000136386756478762752720000005627485074976784536_" gradientUnits="userSpaceOnUse" x1="2196.2014" y1="3107.8076" x2="2208.9626" y2="3131.502" gradientTransform="matrix(4 0 0 -4 -4620 14120)">
	<stop  offset="0" style="stop-color:#1F0001"/>
	<stop  offset="1" style="stop-color:#420A07"/>
</linearGradient>
<path style="fill:url(#SVGID_00000136386756478762752720000005627485074976784536_);" d="M4098,1664.8
	c66-47.7,141.1-97.8,221.6-115.3c-12.7,12.5-28.6,15.6-44.3,23.1c-17.1,8.2-33.3,18.1-50.9,25.3l-0.9,3.7c5.8,3.6,12.6,3.2,19.2,3.6
	c-32.4,14.4-62.8,30.7-92.5,50c-5.8,3.8-29.1,22.5-34.7,23C4110.7,1670.7,4105.7,1668.5,4098,1664.8z"/>
<path class="st9" d="M1023.3,1342.1l72.2,100c5.8,1.6,10.9,3.4,17,3.2l37.2,53.6l275.5,410.6c-0.4,10,0.6,22.7-5.4,31.2
	c-5-8.8-13.2-27.7-22.5-32.4c-13.7-6.8-23.3,7.3-35.8,9l-3.6,0.4l-62.8,5.4c-7.6,0.9-22.9,4.7-29.7,3.2c-5.2-0.6-10.2-1.3-15.4-1.3
	c-9.7,0-22.5-1.6-31.7,1.2c-4.2,1.3-7.2,1.6-11.6,1.8c-1-7.6,0.1-14,1.4-21.5l-173.6,19.2l-66.6,10.8c-33.7,6-75.6,12.1-98.5,40.3
	c-12.7,15.6-16.6,30.9-14.2,50.6l0.7,4.9c-16.9,13.8-140.1,23.5-171.1,28.2l-104,18.5c-56.2,11.9-117,27.7-166,58.7
	c38.5-85.4,97-161.5,149.1-239l95.2-148.1c-44.6-5.4-93-2.4-138.1-2.6l-231.8-0.7c-40.9,0.2-89.6,5.1-129.4-2.6
	c-17.6-3.4-37.8-16.3-46.8-32.1c-6.2-10.8-6.7-27.6-2.4-39.1c13.5-36.2,68-54.4,100.5-68.2c-4.8-8.5-10.7-17.4-13.3-26.9l-0.7-2.6
	l-2.8-13.3c-3.8-29.2,0.2-52.4,19.3-75.6c28.3-34.4,70-50.2,113.3-54.1l25.8-0.7c12-0.3,27.9,5.7,39.4,8.8l93.7,27.9
	c19.6,6.1,40,9.7,59.3,16.9c16.6,6.2,32.1,14.9,48.5,21.8c16.6,7,33.4,12.2,49.7,20.1l22.7,12.8c31.5,22.1,41.9,62.9,48.1,98.4
	c36-24.4,66-58.8,97.6-88.6L1023.3,1342.1z"/>
<path class="st2" d="M1095.5,1442.1c5.8,1.6,10.9,3.4,17,3.2l37.2,53.6l-2.2,20.2L1095.5,1442.1z"/>
<path class="st3" d="M1149.7,1498.9l275.5,410.6c-0.4,10,0.6,22.7-5.4,31.2c-5-8.8-13.2-27.7-22.5-32.4c-13.7-6.8-23.3,7.3-35.8,9
	l-3.6,0.4l-62.8,5.4c-7.6,0.9-22.9,4.7-29.7,3.2c-5.2-0.6-10.2-1.3-15.4-1.3c-9.7,0-22.5-1.6-31.7,1.2c-4.2,1.3-7.2,1.6-11.6,1.8
	c-1-7.6,0.1-14,1.4-21.5l84.8-6.3c10.3-1.1,20.1-4.3,30.4-5.4c21.4-2.3,43.8,0.1,64.7-5.7l1.2-3.3l-241.6-366.9L1149.7,1498.9z"/>
<path class="st7" d="M1848.2,4106.1c1.8-1.1,4.3-1.6,5.5-3.4c2.1-3.2-4.6-29.9-5.5-34.4c-5.8-29-2-62.2,5.8-90.5
	c16.9-61.3,60.7-117,112-153.4c17.3-12.2,37.9-22.9,56.4-33.1c25.1-13.9,53-21.7,80.7-28.6c89-22.2,187-23,275.1,3.9
	c91.9,28,203.5,91.2,250.4,178.1c59-33.2,121.7-57.6,189.8-60.8c-32.9,69.4-37.8,138.7-11.4,211.7c10.8,30,27.7,56.4,47.6,81
	c5.9,5.5,12.3,13.1,19.5,16.7c19.7,22.1,60.2,35.5,88.6,40.6c62.1,11.2,144.5-23,200.9-46.9c26.8-11.4,50.7-20.4,74.8-37.3
	c63.4-27.9,123.4-70.7,175.7-116l10.6,0.8l-9.1,7.4c-2.2,24,18.3,47.5,21.8,70.8c1.5,9.6-1.5,21.8-3.3,31.4
	c-8.7,45.5-34.2,94-70.1,124.1c-50,41.9-138.3,63.4-202.3,57c-46.6-4.7-88.9-27.7-135-29.6l-233.8-1.7l-422.1-1.1l-168.5,2.2
	c-37.4,0.6-75.4,4.9-112.4-1.9l-4.6-0.8c-23.2-4.4-45.3-13.9-66.9-23.3c-17.6-7.7-36-15.2-52.2-25.5
	c-43.1-27.4-69.8-65.1-97.4-106.7c-5.1-7.7-8.5-13.7-10.9-22.8l-1.9-6.1L1848.2,4106.1z"/>
<path class="st5" d="M2628.7,3944.5c59-33.2,121.7-57.6,189.8-60.8c-32.9,69.4-37.8,138.7-11.4,211.7c10.8,30,27.7,56.4,47.6,81
	c-13,5.8-28.2,5.4-42.2,6.3c-44.1,2.6-88.3-0.1-132.4-0.1l-109.8,1.3c-27-0.7-54-4.8-80.9-2.9l-3.6,0.3l0.3-38.5
	C2494.2,4051.8,2563.3,3998.6,2628.7,3944.5z"/>
<path class="st9" d="M4326,2083.3c16.3-19.4,28.2-42.8,41.6-64.2c40.8-65.4,81.2-127.5,106.2-201.2c116.5,7.6,233.8-9.8,347.1-34.9
	l0.2,2.9c1.7,20.7,8.6,40.4,10.7,61.2c9.4,90.5,12.9,182.2,7.6,273.1c-16,273.3-94.6,535.8-198.4,787.6l-28.6,74.7l-22.7,47.4
	l-83.6,174.6c-27.5,52.7-52.4,111.7-86.1,160.7c-23.7-8.2-53.8-7-78.8-8.3c-34.7,1.3-67.8,1-102.4,6.3
	c-22.6,3.4-45.5,10.7-67.5,16.8c-72.4,20.2-147.3,50.6-201.4,104.1l-226.5-183.5l-54.8-42.2l-193.1-158l-163.7-131.7
	c-19.1-14.7-40.8-35-62.7-44.7l-1.8-4.4c9.2-7,28.5-10.8,39.9-14.6l81.8-29l82.9-35.3c38.9-16.4,76.1-37.3,113.3-57.3
	c139.9-75.2,278.5-166.7,394.2-276c18.3-17.3,38.4-34.6,54.4-54c0-5-0.2-10.1,2.6-14.4c2.1-3.1,1.5-1.1,2.5-4.9l0.4-2.1l2.4-2.4
	l-1.2-3.9l-6.8,2l-4.5-1.7l125.2-137.9l-5.7,2l-3.9,1.6c0.8-5.6,1.8-10.5,0.6-16.1l-0.8-3.8l65.2-71.4
	c13.5-14.8,27.2-34.7,44.6-44.6l5.1-6.3l9.2-1.8c4.9-1.5,8.7-3.1,11.4-7.6c2.9-4.7,1.1-2.4,5.1-7.2l3-3.5l16.5-24.4
	c3.6-0.9,1.7-0.2,5.5-2.4l0-3.7c3.3-3.2,5.5-6.2,7.8-10.3C4320.2,2084.2,4322,2084.7,4326,2083.3z"/>
<path class="st3" d="M4259.6,2149l9.2-1.8c4.9-1.5,8.7-3.1,11.4-7.6c2.9-4.7,1.1-2.4,5.1-7.2l3-3.5l16.5-24.4
	c3.6-0.9,1.7-0.2,5.5-2.4l0-3.7c3.3-3.2,5.5-6.2,7.8-10.3c2.1-3.9,3.9-3.4,8-4.8c-35.9,62.7-79.9,121.8-124.3,178.7
	c-51.7,66.3-107.6,132.7-168,191.2c0-5-0.2-10.1,2.6-14.4c2.1-3.1,1.5-1.1,2.5-4.9l0.4-2.1l2.4-2.4l-1.2-3.9l-6.8,2l-4.5-1.7
	l125.2-137.9l-5.7,2l-3.9,1.6c0.8-5.6,1.8-10.5,0.6-16.1l-0.8-3.8l65.2-71.4c13.5-14.8,27.2-34.7,44.6-44.6L4259.6,2149z"/>
<path class="st12" d="M4144.7,2271.4l65.2-71.4c13.5-14.8,27.2-34.7,44.6-44.6c-12.9,24.4-30.7,45.4-47.6,67.1
	c-17.2,22.1-33.3,44.6-52.4,65.2l-5.7,2l-3.9,1.6c0.8-5.6,1.8-10.5,0.6-16.1L4144.7,2271.4z"/>
<path class="st7" d="M4482.7,2631.5c5.5,16.3,9.1,35.5,3.3,52.3c-5.4,15.8-20.6,26.9-35.1,33.7c-9.2,4.3-19.2,6.1-29.3,6.8
	c-31,1.9-62.8,0.4-93.9,0.6l-213.5-0.3l-105.1-1.2c-15-0.4-34.7,1.1-48.7-4.3c-21-8.2-33.1-27.8-42.2-47.2
	c-6.4-13.7-6.6-26.1-1.5-40.2c7.1-19.7,12.8-42.4,27.9-57.6c10.1-10.2,49.7-38.2,64.7-37.3l86.1,2.9c-0.9,3.4-1,8-4.2,9.8
	c-11.1,6.5-27.5,8.9-39.9,13.5c-26.2,9.7-47.7,23.5-69.3,41.2c-7.3,6-16.5,13.7-19.8,22.8c-4.8,13.1-3.1,32.9,4,44.9
	c6.4,10.9,13.8,14.7,25.9,17.2c29.2,5.9,62.7,2,92.3,1.9l177.8-2c17.7-0.1,35.2,2.5,52.9,2.5l62-1.9c16.1,0,33,1.2,49-0.3
	c9.3-0.9,15.5-3,23.3-8l2.5-1.6c11.2-7.2,17.8-15.6,21.4-28.2C4475.6,2643.7,4477.9,2637.9,4482.7,2631.5z"/>
<path class="st5" d="M4095.4,2539.6c2.1-22.7,16.5-46.2,33.8-60.8c22.7-19.1,52.4-27,81.8-24.7c19.3,1.6,37.1,15,48.8,30
	c8.9,11.4,15.3,25.2,19.5,39c24-4.2,62-14.5,83.6-0.8c17.5,11.1,32.2,30.4,48.7,43.5c17.2,13.7,40.1,22.9,55.1,38.6
	c7.5,7.9,12,17,16,27c-4.7,6.4-7.1,12.2-9.3,19.9c-3.7,12.6-10.2,21-21.4,28.2l-2.5,1.6c-7.8,5-14,7.1-23.3,8
	c-16,1.5-32.9,0.2-49,0.3l-62,1.9c-17.7-0.1-35.2-2.6-52.9-2.5l-177.8,2c-29.6,0.2-63.1,4-92.3-1.9c-12.1-2.5-19.4-6.3-25.9-17.2
	c-7.1-11.9-8.8-31.8-4-44.9c3.3-9,12.5-16.7,19.8-22.8c21.5-17.7,43.1-31.5,69.3-41.2c12.3-4.6,28.7-7,39.9-13.5
	C4094.4,2547.6,4094.5,2543,4095.4,2539.6z"/>
<path class="st7" d="M3743.5,3300.4c40.5-58,94.5-104.5,161-129.9c17.8-6.8,36.5-10.5,54.9-15.3c68.2-17.8,157.2-0.1,217,35.8
	c47.5,28.6,92.5,66.9,119.5,116.2c6.3,11.5,11.7,23.5,17,35.4c0.6,1.5,4.1,10.3,4.7,10.9c1.4,1.1,20.8,2.4,23.6,3.1
	c-34.7,1.3-67.8,1-102.4,6.3c-22.6,3.4-45.5,10.7-67.5,16.8c-72.4,20.2-147.3,50.6-201.4,104.1L3743.5,3300.4z"/>
<path class="st9" d="M342.2,2251.2c-4.4,20.1-8.7,40.2-9.1,60.9c-0.8,39.1,12.1,94,33.1,127.2c15.3,24.3,44.6,52.7,71.2,64.7
	c21.8,9.8,50.7,15.4,74.1,20.2l29.4,6c21.2,5.3,46.2-0.4,65.8,5.8c9.1,2.9,21.1,1.4,30.7,1.2c60.9-1.4,123.5-15,182.9-28
	c-11.5,14.9-23.1,27.4-37.1,40L594,2710.7c-35.6,30.3-78.8,58.6-108.3,94.7c-32.1,39.2-62.9,104.2-67.9,154.8
	c-2,20-2.8,43.9,1.3,63.7c4.8,23.2,26.1,61.1,41.1,78.8c27.3,32.3,64.1,59.4,98.9,83c37.2,25.3,78.1,50.5,119.8,67.8
	c18.1,7.5,37.1,14.4,55.8,20c7.7,2.3,16,3.2,23.5,6c36.1,13.8,71.2,32.6,107.6,45.9c67.1,24.5,135.2,42.5,204.6,59.1
	c87.9,21.1,175,37.7,265.2,44.4c158.2,11.9,316.9,5.4,474.4-12.2l153-22l131.9-24.5c23.5-4.7,46.8-10.6,70.5-13.7
	c8.1-1.1,17.6-3.1,25.6-1.7c-32.2,68.3-40.8,140.6-14.8,213.2c19.8,55.1,54.4,102.9,109.1,127.4c25.4,11.4,52.1,13.3,79.5,14.8
	c16.2,0.9,33.5,2.8,49.6,2.2c16.8-0.7,34.6-4.6,51.3-6.9c62.8-8.6,124.2-24,183.1-47.6c43.7-17.5,85.3-38.4,126.9-60.2
	c21.2-11.1,42.8-20.9,63-34l84-56.7c20-14.3,39.2-30.4,60.1-43.4l212.2,123.2c23.1,14,48.9,25.9,70.5,42.1
	c-40.1,14.5-82.1,25.1-121.6,40.7c-51.6,20.4-100.4,45.2-148.8,72.3c-63.4,35.4-136.8,79.5-176.7,141.8
	c-68.1,3.2-130.9,27.6-189.8,60.8c-46.9-86.9-158.4-150.1-250.4-178.1c-88.2-26.8-186.2-26.1-275.1-3.9
	c-27.7,6.9-55.6,14.7-80.7,28.6c-18.5,10.3-39.1,20.9-56.4,33.1c-51.4,36.4-95.1,92.1-112,153.4c-7.8,28.3-11.6,61.6-5.8,90.5
	c0.9,4.5,7.5,31.2,5.5,34.4c-1.2,1.8-3.7,2.3-5.5,3.4c-29.6-0.5-60.3,4.7-89.7,8l-144.7,15.5c-221.7,20.6-445.9,37.3-668,16.3
	c-44.8-4.2-89.8-7.9-133.6-18.4c-91.7-22.1-179.5-61-258.7-112.2c-13.7-8.8-25.5-20.3-38.5-30.1c-54.9-41.6-107.6-90.7-151.1-144.2
	c-9-11.1-16.2-23.5-24.9-34.8c-8.6-11.2-19.4-21-27.2-32.6c-6.3-9.3-10.6-20-16.4-29.6l-36.5-61.4c-28.1-50-55.2-104.8-74.3-159
	c-14.9-42.4-25.5-87.8-34.7-131.8c-25.7-122.9-30.7-244-21.7-369.1c4.5-62.7,16.6-126.4,27.9-188.3c24.8-135.5,57.1-270.7,105.1-400
	c18.7-50.5,37.8-99.1,62.8-146.8C330.5,2275.5,334.6,2262.9,342.2,2251.2z"/>
<path class="st7" d="M1027.4,3577.2c13.4-0.6,26.9-1.2,39.9,2.7c33.8,10,55.7,45.1,74.1,72.4c2.4,3.6,9.2,14.4,12.7,16.1
	c11.9,5.8,32,4.7,45.7,9.7c11.9,11.9,23.8,26.8,24.9,44.4c0.2,3.6,0.5,6.2,1.5,9.7c25,2.3,42.5,8.9,59.2,28.8l-3.3,4.9
	c-5.2,3-10.1,5.9-16.2,6.6c-16.6,2-35.3-0.7-52.3-0.5l-154.6,0.2l-134.9,2.2c-14.2-0.1-28.3-2.4-42.5-2.4
	c-14.4-0.1-62.3,4.6-71.4-4.4c-5.2-5.1-4.2-9.6-4.1-16.3c13.4-16.6,37.3-16.2,56.9-14.4c7,0.7,14.8,3.5,20.8-0.3l-1-2.7
	c-5.1-17.7,1.7-37.8,11.1-52.8c8.5-13.6,18.9-22.9,34.9-26l4.8-0.9c3.6-4.7,6.3-9.7,9.2-14.8C962,3605.1,990.1,3587.5,1027.4,3577.2
	z"/>
<path class="st3" d="M783.2,2549.3c1.3,8,0.5,17.7,3.7,24.7l-0.5,3c-16.1,20.5-39.1,37.1-58.5,54.4L625.2,2725l1.4,2.1
	c18.1,25.5,44.8,46.5,64.6,71.3c61.5,77,103.9,181.9,109.9,280.3c220.5,24.1,443.3,0.6,659.9-43.1c7.2,3.6,13.4,6.3,18.4,12.9
	l254-58.4l237.8-62.6l81.5-22.7l-5.8-5.6c7.5-7.5,18.1-8,28-11.3c3.8-1.2,6.9-2.5,10.8-3.1c4.9-0.7,8.8-7.9,11.9-11.8l569.9-174.6
	l-1.9,2.1c-6.8,7.4-9.6,8.1-18.2,12c-1.8,0.8-3.4,2.3-4.9,3.5c3.7,2.2,6.4,3.2,10.7,4l0.3,3.5l194.1-17.4c45.6-2.7,87.3-4.2,133,0.7
	c35.9,3.8,67.8,9.8,96.7,33.4c27.5,22.5,48.6,53.3,74.1,78.1l-21.7,6.1l118,101.8c5.1-1.3,8.2-2.1,13.6-1.2c5.5,1,2.2,1.7,7.5-1.2
	c22,9.6,43.7,30,62.7,44.7l163.7,131.7l193.1,158l54.8,42.2l226.5,183.5l99.8,79c19.8,16.2,40.5,31,55.6,52
	c8.2,11.4,10.4,20.2,11.9,34c2.2,20.4,1.8,33.2-5.8,52.4c-14.3,23.4-28.6,40.8-51.2,56.6c-4.5,3.2-11.3,8.7-16.4,10.4
	c-28.4,19.1-61.7,31.8-94.2,42c-69.5,23.7-143.7,40.8-217.5,42.1c-37.9-2.9-76.4-8.8-111.9-22.9c-18.3-7.3-35.8-17.3-54.4-23.7
	l-4.1-1.4l-107.1-62.3l-2.9,2.6c9.8,9.5,33.1,23.7,37.3,35.6c-7.6,3.4-17.6,0-25.8-1.2c18.1,26.7,32.2,54.1,39.3,85.8
	c2.6,55.9-35.3,93.6-70.7,132.3l-37.7,36.1c-52.3,45.3-112.3,88.1-175.7,116c-24,16.9-47.9,25.9-74.8,37.3
	c-56.4,24-138.9,58.1-200.9,46.9c-28.4-5.1-69-18.5-88.6-40.6c-7.2-3.6-13.6-11.2-19.5-16.7c-19.9-24.6-36.7-51-47.6-81
	c-26.4-73-21.5-142.3,11.4-211.7c39.8-62.3,113.3-106.4,176.7-141.8c48.4-27,97.2-51.9,148.8-72.3c39.5-15.6,81.5-26.3,121.6-40.7
	c-21.5-16.2-47.3-28.2-70.5-42.1l-212.2-123.2c-20.9,13-40.1,29.1-60.1,43.4l-84,56.7c-20.1,13.1-41.8,22.9-63,34
	c-41.6,21.8-83.2,42.7-126.9,60.2c-59,23.7-120.3,39-183.1,47.6c-16.7,2.3-34.5,6.2-51.3,6.9c-16.1,0.7-33.5-1.3-49.6-2.2
	c-27.3-1.5-54.1-3.5-79.5-14.8c-54.7-24.5-89.3-72.3-109.1-127.4c-26-72.7-17.4-144.9,14.8-213.2c-8-1.4-17.5,0.7-25.6,1.7
	c-23.8,3.1-47,9-70.5,13.7l-131.9,24.5l-153,22c-157.5,17.7-316.2,24.1-474.4,12.2c-90.2-6.8-177.4-23.4-265.2-44.4
	c-69.4-16.7-137.4-34.6-204.6-59.1c-36.4-13.3-71.5-32.1-107.6-45.9c-7.5-2.9-15.8-3.7-23.5-6c-18.8-5.6-37.7-12.5-55.8-20
	c-41.7-17.3-82.6-42.5-119.8-67.8c-34.8-23.7-71.6-50.8-98.9-83c-15-17.8-36.3-55.6-41.1-78.8c-4.1-19.8-3.3-43.7-1.3-63.7
	c5-50.5,35.8-115.5,67.9-154.8c29.5-36.1,72.7-64.4,108.3-94.7L783.2,2549.3z"/>
<path class="st13" d="M2863.3,3393.8l95.3,53.5c-90.7,77.6-196.7,139.8-308,182.2c-80,30.5-156.5,52.1-242.4,58.4l24.2-38.8l4.7-6.2
	l5.5,2.4c77-8.4,155.2-25.9,225.9-58.2c32.5-14.9,61.9-33.2,91.8-52.7c26.4-17.3,50.6-34.2,73.6-55.9c7.4-7,26.2-23.5,28.2-33.7
	C2865.1,3429.7,2862.9,3409.3,2863.3,3393.8z"/>
<path class="st14" d="M461.8,2886.1c17.8,38.5,42.6,82.1,76.6,108.9c17.8,14,38.2,23.2,58.2,33.6c20.8,10.8,41.5,22.4,63.5,30.5
	c43.4,16.1,91.6,24.7,138,20.8c-4.1,59-15.6,129.7-55,176.3l-54-22.4c-91.6-42.9-215.6-105.5-251.3-207.3l-1.3-3.9l-1.3-3.5
	C420.8,2976.8,442.4,2923.4,461.8,2886.1z"/>
<path class="st10" d="M2880.6,3875.8c32.6-7.3,54.4-5.5,85.2,9.1c36.8,25.2,61,54.7,81.9,94c18.7,61.3,22.7,109.8,4.6,171.7
	c-11.2,23.4-27.7,43.3-53,52.1c-28.9,10.1-60.4-0.3-86.3-13.9c-9.8-5.2-19.5-12.3-27.9-19.6c-21.4-21-41.2-50.3-51.1-78.6
	c-16.6-47.3-28-114.4-5.3-161.3C2840.3,3905.2,2854.3,3885,2880.6,3875.8z"/>
<path class="st15" d="M2911.8,3899.7c9.9,0.5,19.7,1,29.2,4.3c36.8,12.6,71.5,51.4,87.7,86.4c16.5,35.7,23.4,89,8.5,125.9
	c-13.3,32.7-34.6,52.2-66.8,65.8c-18.8,0.5-31.6-0.8-48.3-10.5c-41.2-24-72.8-76.1-83-121.9c-8.2-36.5-2.8-86.4,18.5-117.7
	C2871.2,3911.9,2888.8,3904.4,2911.8,3899.7z"/>
<path class="st10" d="M2410.4,3646.5l-13.1,18c-14.3,16.5-32.7,18.9-53.6,19.8c-35.6,1.5-62.4-13.7-87.8-37.7
	c-38.8-36.8-65.3-93.2-66.4-146.9c-1.1-53.4-0.3-93.1,39.2-134.2c14.4-15,29.4-25.6,50.9-25.8c33.6-0.3,66.3,16.2,89.7,39.8
	c49.3,50,64,105.3,63.8,174.2l9.6-3.5c5.5-2.4,6.7-0.6,12.3,1.2c-1,33-4.9,60.9-17.7,91.4l-4.7,6.2
	C2424.1,3646.1,2419.2,3645.2,2410.4,3646.5z"/>
<path class="st16" d="M2433.1,3553.8l9.6-3.5c5.5-2.4,6.7-0.6,12.3,1.2c-1,33-4.9,60.9-17.7,91.4l-4.7,6.2
	c-8.4-2.9-13.3-3.8-22.1-2.5c5.8-12.9,13.2-25.5,16.7-39.3C2431.4,3590.3,2431.6,3571.1,2433.1,3553.8z"/>
<path class="st15" d="M2276.6,3374.5c15.8-0.6,29.8-0.1,44.8,5.6c30.6,11.7,64.8,50.8,77.3,80.7c17.7,42.5,23.9,98.4,5.5,141.4
	c-12.9,30.1-27.7,43.9-58.2,56.2c-15,0.8-32-0.6-45.8-6.9c-32.3-14.5-66.1-54.8-77.8-87.9c-5.8-16.5-12.6-35.7-15.1-53
	c-3.6-24.5,2-70.1,13.5-91.8C2233.2,3395,2251.7,3382.2,2276.6,3374.5z"/>
<path class="st10" d="M461.8,2886.1C495.5,2816,565,2771,625.2,2725l1.4,2.1c18.1,25.5,44.8,46.5,64.6,71.3
	c61.5,77,103.9,181.9,109.9,280.3l-3.2,1.1c-46.4,3.9-94.5-4.7-138-20.8c-22-8.1-42.7-19.7-63.5-30.5
	c-19.9-10.4-40.4-19.5-58.2-33.6C504.4,2968.2,479.6,2924.6,461.8,2886.1z"/>
<path class="st5" d="M2455,3551.4c-2.6-45-9.5-91.1-32.9-130.5c-22.7-38.3-61.9-75.9-105.5-88.4c-20.1-5.8-41.4-8.1-61.8-13.3
	c32.3-25.4,68.7-38,105.6-55c54.2-24.9,110.3-52.9,167.8-69c23.2,4.5,43.7,20.9,63.3,33.1l101.1,63.2l170.6,102.2
	c-0.3,15.5,1.8,36-1.1,50.9c-2,10.2-20.8,26.7-28.2,33.7c-23,21.7-47.2,38.7-73.6,55.9c-29.8,19.5-59.2,37.9-91.8,52.7
	c-70.7,32.3-148.9,49.8-225.9,58.2l-5.5-2.4C2450.1,3612.3,2453.9,3584.4,2455,3551.4z"/>
<path class="st5" d="M2888.8,3855.5l15.5-17.1c86.1-78.1,313.9-196.2,433.3-190.1c38.6,8.2,65.1,53,85.6,84.1
	c11,16.8,19.2,34.2,28.3,52c16.9,33,33.7,65.4,42.2,101.8c-22.5,70.7-107.4,135.9-165.6,178.6c-13.5,9.9-28.8,17.2-41.7,27.8
	c-22.1,14.7-45.2,25.6-68.7,37.6c-34.8,17.7-68.9,34.9-105.1,49.7c-19.7,8.1-37.3,17.2-58.4,21.1l-2.3-1.9l1.5-1.8
	c9.1-11.1,14.6-24.6,20.6-37.6l-7.4-7.6c-4.3,0.4-7.1,0.6-11.3-0.6l-3-1c18.1-61.9,14-110.4-4.6-171.7c-20.9-39.2-45.1-68.8-81.9-94
	c-30.7-14.6-52.5-16.4-85.2-9.1C2882.5,3868.9,2883.7,3860.8,2888.8,3855.5z"/>
<path class="st15" d="M2880.6,3875.8c2-6.9,3.2-15,8.2-20.3c38.3-3.5,67.5,2.7,99.8,24.4c-9.7,0.5-14.5-0.3-22.9,5
	C2935,3870.3,2913.2,3868.5,2880.6,3875.8z"/>
<path class="st16" d="M2988.6,3879.9c44.8,36,68.7,77.5,86.4,131.8c-5-2.3-9-4.2-13.2-7.8c-1.7-8.4-7.6-15.8-9.9-24.5l-1.1-4.1
	l-3.1,3.5c-20.9-39.2-45.1-68.8-81.9-94C2974.1,3879.6,2978.9,3880.4,2988.6,3879.9z"/>
<path class="st2" d="M3047.6,3978.8l3.1-3.5l1.1,4.1c2.4,8.7,8.2,16.1,9.9,24.5c4.2,3.7,8.2,5.5,13.2,7.8c10.2,49.2,13,99.3-1,148.2
	l-7.4-7.6c-4.3,0.4-7.1,0.6-11.3-0.6l-3-1C3070.3,4088.7,3066.3,4040.2,3047.6,3978.8z"/>
<linearGradient id="SVGID_00000063597741866084445010000009088321008272665231_" gradientUnits="userSpaceOnUse" x1="1562.9932" y1="2677.6521" x2="1548.6006" y2="2798.9792" gradientTransform="matrix(4 0 0 -4 -4620 14120)">
	<stop  offset="0" style="stop-color:#D02223"/>
	<stop  offset="1" style="stop-color:#FF302C"/>
</linearGradient>
<path style="fill:url(#SVGID_00000063597741866084445010000009088321008272665231_);" d="M2052.9,2904.7l83.2-25.2l96.8-26.3
	c8.7-2.5,15.8-7.8,24.2-11c10-3.8,22.6-4.6,33.2-6.2c-23.6,19.3-52.9,31.8-74.7,52.8c-13.5,12.9-23,29.8-32.1,46
	c-7.7,13.7-16.6,30.5-20,46c-1.8,8.3,3.2,16.6,8.5,22.5c25.4,28.5,71.6,48.6,103.9,69.2l123.1,78.1l0.8,0
	c15.5,13.4,35.6,28.4,54.4,36.5l2.8,1.1c-24.6,15.6-50.5,24.5-76.5,37l-123,61.7c-20.2,10.4-38.7,27.6-59.8,35.2
	c-50.7,18.2-105.1,26.8-158.2,35.6l-41.3,8.9l-79.9,11.5c-145.8,21.4-288.1,33.3-435.4,33.2c-62.6-0.1-124.3-0.7-186.6-7.5
	c-68.5-7.5-135.2-21-202.4-35.4c-113.8-24.5-225.4-58.5-330.7-108.5c31.4-47.7,40.6-103.4,46-159c8.8-1.7,18.9,0.1,27.8,0.7l52,2.8
	l95.7,0.9c125.4-1.4,251.6-13.4,375.3-33.9c39.7-6.6,80.8-12.5,119.7-22.8l254-58.4l237.8-62.6L2052.9,2904.7z"/>
<path class="st18" d="M2667.9,2698.4l-1.9,2.1c-6.8,7.4-9.6,8.1-18.2,12c-1.8,0.8-3.4,2.3-4.9,3.5c3.7,2.2,6.4,3.2,10.7,4l0.3,3.5
	l194.1-17.4c45.6-2.7,87.3-4.2,133,0.7c35.9,3.8,67.8,9.8,96.7,33.4c27.5,22.5,48.6,53.3,74.1,78.1l-21.7,6.1l118,101.8
	c5.1-1.3,8.2-2.1,13.6-1.2c5.5,1,2.2,1.7,7.5-1.2c22,9.6,43.7,30,62.7,44.7l163.7,131.7l193.1,158l54.8,42.2l226.5,183.5l99.8,79
	c19.8,16.2,40.5,31,55.6,52c8.2,11.4,10.4,20.2,11.9,34c2.2,20.4,1.8,33.2-5.8,52.4c-14.3,23.4-28.6,40.8-51.2,56.6
	c-4.5,3.2-11.3,8.7-16.4,10.4c-28.4,19.1-61.7,31.8-94.2,42c-69.5,23.7-143.7,40.8-217.5,42.1c-37.9-2.9-76.4-8.8-111.9-22.9
	c-18.3-7.3-35.8-17.3-54.4-23.7l-4.1-1.4l-107.1-62.3l-2.9,2.6c-7.9-6.4-17.6-12-27-16c-8.7-3.8-13.5,0.1-21.6,3.5
	c-20.5-31.1-47-75.9-85.6-84.1l9.6-1.4c5.4-6.3,0.9-10.6,3.8-18.1c-13.2-2.7-27.7-4.8-40.3-9.8c-24.4-9.7-47.1-26.6-69.7-39.9
	l-78.5-44.9L2770.6,3304l-125.8-76.7c-26.9-16.8-54-35.5-81.9-50.7c-26.3-14.3-42.4-8.1-69.2,0.2c-26.5-7.6-57.3-31.2-81.2-45.5
	l-1.7,4.2l42.1,25c2.7,1.8,3.9,3.4,5.5,6.1l-0.6,14c-6.8,0.8-12.3-3.2-18.1-6.3c-4.1-2.2-7.1-4.7-10.6-7.7l-16.5-12.4
	c-4.4-3.5-7.6-4-13-3.6l-0.8,0l-123.1-78.1c-32.3-20.6-78.5-40.7-103.9-69.2c-5.3-5.9-10.3-14.2-8.5-22.5c3.4-15.5,12.3-32.3,20-46
	c9-16.2,18.6-33.1,32.1-46c21.8-21,51.2-33.5,74.7-52.8c-10.6,1.6-23.3,2.4-33.2,6.2c-8.3,3.2-15.4,8.5-24.2,11l-96.8,26.3
	l-83.2,25.2l-5.8-5.6c7.5-7.5,18.1-8,28-11.3c3.8-1.2,6.9-2.5,10.8-3.1c4.9-0.7,8.8-7.9,11.9-11.8L2667.9,2698.4z"/>
<path class="st15" d="M3269.1,2923.8c22,9.6,43.7,30,62.7,44.7l163.7,131.7l193.1,158l54.8,42.2l226.5,183.5l99.8,79
	c19.8,16.2,40.5,31,55.6,52c8.2,11.4,10.4,20.2,11.9,34c2.2,20.4,1.8,33.2-5.8,52.4c-14.3,23.4-28.6,40.8-51.2,56.6
	c-4.5,3.2-11.3,8.7-16.4,10.4c-5.1-2.5-13.2-5.9-18.9-5.3l-2.1,0.4l2.5-3.7l-0.9-3.6c2.9-5,23.5-14.7,29.6-19.5
	c15.9-12.6,28.3-28.3,39-45.4c2.4-16.9,3.8-40.7-1.6-56.8c-1.4-8.5-6.3-13.6-12.5-19.2c-66.1-59.9-141.1-111.2-210-168L3607.4,3219
	l-359.3-292.8c5.1-1.3,8.2-2.1,13.6-1.2C3267.2,2926,3263.8,2926.7,3269.1,2923.8z"/>
<path class="st2" d="M2667.9,2698.4l-1.9,2.1c-6.8,7.4-9.6,8.1-18.2,12c-1.8,0.8-3.4,2.3-4.9,3.5c3.7,2.2,6.4,3.2,10.7,4l0.3,3.5
	l194.1-17.4c45.6-2.7,87.3-4.2,133,0.7c35.9,3.8,67.8,9.8,96.7,33.4c27.5,22.5,48.6,53.3,74.1,78.1l-21.7,6.1
	c-27.4-26.4-60.8-64.4-95.9-79.7c-36.1-15.8-89.2-12.6-128.7-11.9c-122.4,2-244,25.6-364,48c-55.9,10.4-112.6,18.2-165.9,38.8
	c-45.8,17.7-86.3,46.9-128,72.2c-26.5,14.5-47.2,39-55.8,68.2c-2.2,7.5-1.9,14.5-1.2,22.2c16.8,25.3,55.9,41.4,81.3,57.4l108,68.2
	c6.9,4.4,29.4,16.9,32.7,23.5l-1.7,4.2l42.1,25c2.7,1.8,3.9,3.4,5.5,6.1l-0.6,14c-6.8,0.8-12.3-3.2-18.1-6.3
	c-4.1-2.2-7.1-4.7-10.6-7.7l-16.5-12.4c-4.4-3.5-7.6-4-13-3.6l-0.8,0l-123.1-78.1c-32.3-20.6-78.5-40.7-103.9-69.2
	c-5.3-5.9-10.3-14.2-8.5-22.5c3.4-15.5,12.3-32.3,20-46c9-16.2,18.6-33.1,32.1-46c21.8-21,51.2-33.5,74.7-52.8
	c-10.6,1.6-23.3,2.4-33.2,6.2c-8.3,3.2-15.4,8.5-24.2,11l-96.8,26.3l-83.2,25.2l-5.8-5.6c7.5-7.5,18.1-8,28-11.3
	c3.8-1.2,6.9-2.5,10.8-3.1c4.9-0.7,8.8-7.9,11.9-11.8L2667.9,2698.4z"/>
<path class="st19" d="M2412.6,3131.2c-3.3-6.6-25.8-19.1-32.7-23.5l-108-68.2c-25.4-15.9-64.5-32.1-81.3-57.4
	c-0.8-7.7-1-14.7,1.2-22.2c8.7-29.2,29.3-53.8,55.8-68.2c36.1,17,67.6,40.4,101.7,60.6l220.4,129.1l252.1,140.5l413.7,246l93.5,51.6
	l188.7,106.8c30.1,17.3,59.9,37.8,90.6,53.6c13,6.7,27.5,10.2,40.4,16.9c11.3,5.8,19.2,14.8,31.7,18.9c24.3,7.9,50.4,16.7,75.6,20.5
	c27.1,4.1,51.1,3.1,78.4,1.8c48.3-2.3,96.4-8.7,142.3-25.1c34.8-12.5,73.4-29.2,103.3-51.1c11.2-8.2,20.2-19.8,31.6-27.4
	c5.4,16.2,4,40,1.6,56.8c-10.7,17.1-23.1,32.8-39,45.4c-6.1,4.9-26.7,14.5-29.6,19.5l0.9,3.6l-2.5,3.7l2.1-0.4
	c5.7-0.6,13.8,2.8,18.9,5.3c-28.4,19.1-61.7,31.8-94.2,42c-69.5,23.7-143.7,40.8-217.5,42.1c-37.9-2.9-76.4-8.8-111.9-22.9
	c-18.3-7.3-35.8-17.3-54.4-23.7l-4.1-1.4l-107.1-62.3l-2.9,2.6c-7.9-6.4-17.6-12-27-16c-8.7-3.8-13.5,0.1-21.6,3.5
	c-20.5-31.1-47-75.9-85.6-84.1l9.6-1.4c5.4-6.3,0.9-10.6,3.8-18.1c-13.2-2.7-27.7-4.8-40.3-9.8c-24.4-9.7-47.1-26.6-69.7-39.9
	l-78.5-44.9L2770.6,3304l-125.8-76.7c-26.9-16.8-54-35.5-81.9-50.7c-26.3-14.3-42.4-8.1-69.2,0.2
	C2467.3,3169.2,2436.5,3145.5,2412.6,3131.2z"/>
<linearGradient id="SVGID_00000151521271168283357260000006393129292318823848_" gradientUnits="userSpaceOnUse" x1="2003.6406" y1="2604.541" x2="2014.438" y2="2613.177" gradientTransform="matrix(4 0 0 -4 -4620 14120)">
	<stop  offset="0" style="stop-color:#270000"/>
	<stop  offset="1" style="stop-color:#180201"/>
</linearGradient>
<path style="fill:url(#SVGID_00000151521271168283357260000006393129292318823848_);" d="M3351,3628.8
	c39.8,10.9,56.9,38.5,87.4,62.3c17.7,13.9,38.7,25.7,58.1,37.1c-7.7,4.2-15.4,8-21.8,14l-2.9,2.6c-7.9-6.4-17.6-12-27-16
	c-8.7-3.8-13.5,0.1-21.6,3.5c-20.5-31.1-47-75.9-85.6-84.1l9.6-1.4C3352.5,3640.6,3348,3636.3,3351,3628.8z"/>
<path class="st3" d="M3496.5,3728.2l79.6,44.9c31.9,17.4,64.3,35.3,99.5,45.2c73.6,20.7,154.8,8.2,227.6-9.6
	c48.6-11.9,96.3-31.1,141.4-52.7l0.9,3.6l-2.5,3.7l2.1-0.4c5.7-0.6,13.8,2.8,18.9,5.3c-28.4,19.1-61.7,31.8-94.2,42
	c-69.5,23.7-143.7,40.8-217.5,42.1c-37.9-2.9-76.4-8.8-111.9-22.9c-18.3-7.3-35.8-17.3-54.4-23.7l-4.1-1.4l-107.1-62.3
	C3481.1,3736.2,3488.8,3732.5,3496.5,3728.2z"/>
<path class="st9" d="M2313.7,758.9c39.2-1.8,79.8-6,118.9-4.3c42.4,1.9,80.9,11,122,20.5l106.4,25.8c22.9,6.1,45,15.9,67.9,21.4
	c0.6,0.2,1.3,0.6,1.9,0.4c11.3-3.2,24.5-16.5,34.8-22.7c49-29.8,93.8-41.1,145.6-12.9c-69.5,29.2-126,64.5-156,137.8l-7.7,21.8
	c-24.7,1.7-50.3,1.7-74.4,7.5c-19.5,4.6-39.9,8.7-58.5,16.2c-45.5,18.5-95.2,63.2-121.5,104.6c-10.8,17-19.1,37.2-26.5,55.8
	c-8.4,48-2.5,89.4,25.9,130.1c7.9,11.3,16.1,21.2,26.7,30l7.9,6.7l46.3,16c12-1.8,27.2,1.1,39.6,1.4l123.9,2.9l508.9-0.4l150.5,0.6
	c25,0.1,53.3,2.5,77.8-1.4l3.3-0.6c33.6-5.6,70.7-17.6,101.4-32.5c-3.6-13.3-5.8-24.4-3.4-38.1c6.9-39.2,26.9-61.8,58.2-84.3
	c42.9-20,95-29.8,141.9-30.7c18.3-0.3,36-0.4,53.4,6.2c40.5,15.2,72.8,53.4,103.6,82.6l107.8,103.9c9.5,9.1,21.7,26.4,32.7,31.9
	l1.8-2.5c32.4-43.1,79-76.6,112.4-119.2l33.9-36.2c2,9.6,5.4,17.4,9.6,26.2l-153.4,162l-127.7,133.1c-37.7,38-75.7,76.5-117.2,110.4
	c-35.5,28.9-74,54.4-112.6,78.7c-16.8,10.6-32.4,22.5-49.7,32.4c-33.5,19.2-69.3,33.9-106.1,45.2c20.5,3.4,51.5-6.2,73.3-7.3
	l152.5-4.6l136.4-6.3l-1.5,6.7l-8,2.4c6.6,2.2,13,1.4,19.8,3.5l-294.1,12.6l-144.6,25.5l-378.8,71.2l-236.4,46.1l-213.5,41.9
	c-17,4-35.9,6.4-52.4,11.8l-7.2-2.4c-2.4-3.8-4.6-3.7-8.7-5.2l-136.1,24.8l-128,24l-132.8,26c-11.9,2.2-31.6,8.3-43.3,6.9
	c-10.3-1.5-21.8,3.2-31-1c0.6-9.1,7.1-6.7,9.8-14.6c-6.2-3.1-7.6-6.4-11.4-12l-219.4,43.3l-202.2,37.2l-75.2,14
	c-16.8,3.1-33.6,8.3-50.7,7.7c-9.9-5.1-14.2-16.5-19.9-25.6c-6.2-10-13.3-19.5-20.2-29l-4.8,10c-4.5-4.6-10.2-5.2-14.4-9
	c-7.7-7-2.6-9.3-14.9-12.8c-8.4-6.1-18.8-27.9-25-37.3c-20.3-30.7-44.2-60.9-61.9-93.1c6-8.5,5-21.2,5.4-31.2l-275.5-410.6
	l-37.2-53.6c-6,0.1-11.2-1.7-17-3.2l-72.2-100c-16.9-19.9-38.7-57.1-37.7-84c1.2-30.1,22.7-52.5,43.9-71.1l34.9-25.8l0.5-2.8
	c2.1-6.8,8.1-11.5,13-16.4c17.7-18,36.3-31.2,56.1-46.6c77.1-59.9,155.3-114.3,239.3-164c45.7-27,87.8-52,136.7-73.2
	c17.1-7.4,35.1-9,52.7-14.7c41-13.2,100-7.1,142.6-1c19.8,2.8,39.9,2.1,59.9,2.2c10.3-1.4,15.6,1.1,24.7-5
	c14.1-10.2,28.9-20.8,44.6-28.4l3.3-1.6c34.5-16.4,81.5-16.6,119.2-17l133.8,0.3l119.2-1.8c23.7-0.3,59.2,4.6,79.5-8.3
	c8.6-5.5,20.2-13.7,22.7-24L2313.7,758.9z"/>
<path class="st4" d="M2492.6,1313.7c4.3-4,7.1-5.8,12.7-7.6l22-8.5l46.3,16C2549.1,1318.3,2517.4,1316.9,2492.6,1313.7z"/>
<path class="st3" d="M2147.7,1729.2l101.1,93.5c-1.5,3.7-2.8,6.2-5.1,9.6l-12.9-2.3l-77.8-70.2l0-4.2c-1.1-10.3-0.8,3.8-0.9-8.3
	l0-4.1C2148.8,1738.3,2148.6,1734.8,2147.7,1729.2z"/>
<path class="st6" d="M2466.9,1130.9c-8.4,48-2.5,89.4,25.9,130.1c7.9,11.3,16.1,21.2,26.7,30l7.9,6.7l-22,8.5
	c-5.7,1.7-8.4,3.5-12.7,7.6l-1.2,0l-23.8,1.3c-39.8,0.4-90.9,1-120.8-28.7c-12-11.9-25.2-28.2-24.4-45.9c1-23.4,22.2-56.5,39.3-72
	C2388.3,1144.2,2431.3,1129.1,2466.9,1130.9z"/>
<path class="st6" d="M1783.1,910.5l-6.9,1.4c-4.8,13.6,95.7,87.5,109.7,104.4c8.7,10.5,13.7,22,15.1,35.5c1.8,16.7-7.5,34.7-18.1,47
	c-16.4,19.1-40.3,29-64.6,33.8c-34.1,6.8-76,2.4-110.9,2.4c-60.1,0-119,2.3-178.9-2.3c-15.3-1.2-36.4-13.2-49.8-11.6
	c-20.2,2.5-46.5-5.1-63.8-15.3c-8.1-4.8-18.6-13.1-20.4-23c-7.1-39.3,32.7-84.1,66.1-98.6c14.5-6.3,33.5-6.9,46.2-15.8
	c13.3-9.2,21.8-25.6,31.3-38.5c26.1-35.4,72.8-52.5,114.5-59c15.4-2.4,36.8-3.9,51.9,0.1l3,0.9c11.9,3.4,22.8,7.8,33,15
	c7.1,5.1,13.3,12.3,21.5,15.4l-1.8-3.6c7.1,0.2,12.3-0.2,17.4,5.5L1783.1,910.5z"/>
<path class="st7" d="M2312,758.9l1.7,0c0.5,3.8-0.4,9.3,3.2,11.5c6,3.7,15,3.8,21.9,4.9c39.2,6.3,75,9.4,103.8,40.1
	c9.2,9.8,18,21.1,21.9,34.1c5.1,17.1,3.9,38.7-5.4,54.2c-9,15.1-26.6,28.7-43.8,32.6c-19.2,4.3-39.6,3.3-59.2,3.4l-85.3,0.1
	l-313.4-1l-83.4,0.8c-13.7,0.3-28.5,2.1-42.1,1.1c-9.4-0.7-16.8-3.6-24.5-8.9c-8.8-6-17.1-13.4-24.3-21.3l-5.3-6.4
	c-5.2-5.6-10.4-5.3-17.4-5.5c-0.2-6-0.8-13.2,0.9-18.9c3.4-11.2,19.6-22.2,19.6-32.8l-15.9-2.2c10.3-1.4,15.6,1.1,24.7-5
	c14.1-10.2,28.9-20.8,44.6-28.4l3.3-1.6c34.5-16.4,81.5-16.6,119.2-17l133.8,0.3l119.2-1.8c23.7-0.3,59.2,4.6,79.5-8.3
	C2297.9,777.4,2309.5,769.2,2312,758.9z"/>
<path class="st3" d="M3634,1161.2c42.9-20,95-29.8,141.9-30.7c18.3-0.3,36-0.4,53.4,6.2c40.5,15.2,72.8,53.4,103.6,82.6l107.8,103.9
	c9.5,9.1,21.7,26.4,32.7,31.9l1.8-2.5c32.4-43.1,79-76.6,112.4-119.2l33.9-36.2c2,9.6,5.4,17.4,9.6,26.2l-153.4,162l-127.7,133.1
	c-37.7,38-75.7,76.5-117.2,110.4c-35.5,28.9-74,54.4-112.6,78.7c-16.8,10.6-32.4,22.5-49.7,32.4c-33.5,19.2-69.3,33.9-106.1,45.2
	c20.5,3.4,51.5-6.2,73.3-7.3l152.5-4.6l136.4-6.3l-1.5,6.7l-8,2.4c6.6,2.2,13,1.4,19.8,3.5l-294.1,12.6l-144.6,25.5l-378.8,71.2
	l-236.4,46.1l-213.5,41.9c-17,4-35.9,6.4-52.4,11.8l-7.2-2.4c-2.4-3.8-4.6-3.7-8.7-5.2l-136.1,24.8c-9.5-7.3-2.8-13.5-6.4-22.4
	c-1.6-4-5.5-8.4-8.1-11.9l358.6-69l379.1-72.2l203.1-38.2c52.3-9.8,104.6-18.5,155.3-35.4c88.1-29.3,183.6-78.4,252.3-141.5
	l-220-331.6c-3.6-13.3-5.8-24.4-3.4-38.1C3582.7,1206.3,3602.6,1183.7,3634,1161.2z"/>
<path class="st14" d="M3479,1810.4c34.5-6.5,68-13.9,102.9-17.9c10.8-1.2,21.5-3.9,32.3-2c9.6,1.8,19,1.6,28.7,1.6l-144.6,25.5
	C3492.2,1814.4,3485.6,1812.5,3479,1810.4z"/>
<path class="st21" d="M2866.2,1927.9l236.8-47c6.1,2.3,11,4.3,16.5,8l-236.4,46.1C2878.9,1931.8,2871.3,1929.9,2866.2,1927.9z"/>
<path class="st10" d="M2601.4,1981.1l264.9-53.1c5,2,12.7,3.9,16.9,7.1l-213.5,41.9c-17,4-35.9,6.4-52.4,11.8l-7.2-2.4
	C2607.7,1982.4,2605.5,1982.6,2601.4,1981.1z"/>
<path class="st10" d="M3103,1880.9l376-70.5c6.6,2.1,13.2,4,19.3,7.4l-378.8,71.2C3114,1885.2,3109.1,1883.2,3103,1880.9z"/>
<path class="st19" d="M3894.7,1533.3c-20.7,24.8-51,50.2-77.1,68.7l-134.4-201.2c-18.6-27.6-39.8-53.9-56.9-82.5
	c-8.5-14.2-24.9-40.8-25.6-57.2c-0.9-21.4,11.1-43.3,24.2-59.1c10.9,21.7,31.1,40,46.2,59l184.9,221.9
	C3867.9,1497.4,3879.9,1523.7,3894.7,1533.3z"/>
<path class="st18" d="M3625,1201.9c44.9-36,129.3-50.3,186.1-43.4c12.2,1.5,21.8,5.1,32.2,11.9c22.9,14.9,43.4,36.7,63.5,55.4
	l148.5,144.9l-160.5,162.6c-14.8-9.6-26.7-35.9-38.6-50.4L3671.2,1261C3656.1,1242,3635.9,1223.7,3625,1201.9z"/>
<path class="st18" d="M1064.5,1161.3c29.3-13.9,62.9-29.6,94.6-37c17.9-4.2,36.1-4.6,54.3-6.1c97.1-8.2,198.8,10.8,290.2,43.3
	c19.8,7,41.1,16,57.9,28.6c19.4,14.5,37.3,33.1,55.3,49.5l109.2,100.4l298.2,273.5l123.5,115.8c0.9,5.6,1.2,9.1,4.4,14l0,4.1
	c0.1,12-0.2-2,0.9,8.3l0,4.2l77.8,70.2l12.9,2.3c2.3-3.3,3.6-5.9,5.1-9.6l177.5,152.3l24.5-3.5c2.6,3.5,6.5,7.9,8.1,11.9
	c3.6,8.8-3.1,15.1,6.4,22.4l-128,24l-132.8,26c-11.9,2.2-31.6,8.3-43.3,6.9c-10.3-1.5-21.8,3.2-31-1c0.6-9.1,7.1-6.7,9.8-14.6
	c-6.2-3.1-7.6-6.4-11.4-12l-219.4,43.3l-202.2,37.2l-75.2,14c-16.8,3.1-33.6,8.3-50.7,7.7c-9.9-5.1-14.2-16.5-19.9-25.6
	c-6.2-10-13.3-19.5-20.2-29l-4.8,10c-4.5-4.6-10.2-5.2-14.4-9c-7.7-7-2.6-9.3-14.9-12.8c-8.4-6.1-18.8-27.9-25-37.3
	c-20.3-30.7-44.2-60.9-61.9-93.1c6-8.5,5-21.2,5.4-31.2l-275.5-410.6l-37.2-53.6c-6,0.1-11.2-1.7-17-3.2l-72.2-100
	c-16.9-19.9-38.7-57.1-37.7-84c1.2-30.1,22.7-52.5,43.9-71.1L1064.5,1161.3z"/>
<path class="st2" d="M2248.8,1822.7l177.5,152.3l24.5-3.5c2.6,3.5,6.5,7.9,8.1,11.9c3.6,8.8-3.1,15.1,6.4,22.4l-128,24l-132.8,26
	c-11.9,2.2-31.6,8.3-43.3,6.9c-10.3-1.5-21.8,3.2-31-1c0.6-9.1,7.1-6.7,9.8-14.6c-6.2-3.1-7.6-6.4-11.4-12l274.1-53.7L2230.7,1830
	l12.9,2.3C2246,1829,2247.2,1826.4,2248.8,1822.7z"/>
<path class="st2" d="M1064.5,1161.3c29.3-13.9,62.9-29.6,94.6-37c17.9-4.2,36.1-4.6,54.3-6.1c97.1-8.2,198.8,10.8,290.2,43.3
	c19.8,7,41.1,16,57.9,28.6c19.4,14.5,37.3,33.1,55.3,49.5l109.2,100.4l298.2,273.5l123.5,115.8c0.9,5.6,1.2,9.1,4.4,14l0,4.1
	c0.1,12-0.2-2,0.9,8.3l0,4.2c-68.4-55.9-132.8-121.3-197.1-181.9l-282.3-259l-79.5-71.5c-18.2-16.3-37-34.2-58.3-46.3
	c-28.6-16.3-60.2-20.3-91.6-28.2c-23.3-5.8-45-12.8-68.8-17.3c-83.8-15.8-186.6-22.5-267,11.3c-23.6,9.9-44.8,24.8-65.8,39.1l-6.4,4
	c-0.2-8.8-3.1-15-6.7-23L1064.5,1161.3z"/>
<path class="st19" d="M1029.6,1187c3.5,7.9,6.5,14.2,6.7,23l6.4-4c13.6,20.2,31.6,36.6,45.9,56.2l118.1,165.2
	c36.8,48,78.2,91.6,113.4,141.1l67.5,101.1l156.4,221.3l87.8,131.5c13.6,19.9,26.3,41.6,41.9,59.9c10.1,11.9,22.1,22.4,33.3,33.4
	l-75.2,14c-16.8,3.1-33.6,8.3-50.7,7.7c-9.9-5.1-14.2-16.5-19.9-25.6c-6.2-10-13.3-19.5-20.2-29l-4.8,10c-4.5-4.6-10.2-5.2-14.4-9
	c-7.7-7-2.6-9.3-14.9-12.8c-8.4-6.1-18.8-27.9-25-37.3c-20.3-30.7-44.2-60.9-61.9-93.1c6-8.5,5-21.2,5.4-31.2l-275.5-410.6
	l-37.2-53.6c-6,0.1-11.2-1.7-17-3.2l-72.2-100c-16.9-19.9-38.7-57.1-37.7-84C986.8,1228,1008.3,1205.6,1029.6,1187z"/>
<path class="st2" d="M1425.2,1909.4l115.6,173.3l-4.8,10c-4.5-4.6-10.2-5.2-14.4-9c-7.7-7-2.6-9.3-14.9-12.8
	c-8.4-6.1-18.8-27.9-25-37.3c-20.3-30.7-44.2-60.9-61.9-93.1C1425.8,1932.1,1424.8,1919.5,1425.2,1909.4z"/>
<path class="st3" d="M1029.6,1187c3.5,7.9,6.5,14.2,6.7,23c-15.7,15.2-26.9,27.5-27,50.9c-0.1,26.2,17.3,48.3,30.3,69.8
	c23.4,38.5,51.3,75.4,73,114.7c-6,0.1-11.2-1.7-17-3.2l-72.2-100c-16.9-19.9-38.7-57.1-37.7-84
	C986.8,1228,1008.3,1205.6,1029.6,1187z"/>
<path class="st5" d="M4447.9,1520.5l6.4,4.1c5-1.1,6.5-0.6,10.1-4.5c36,1.9,72.2-1,108.3,1.5c29.9,2.1,60.9,8,90.4,13l13.7,2.5
	c43.3,4.3,87.5,16.2,129.2,28.6c16.2,4.8,32.8,8.3,48.6,14.6c16.5,3.4,37,4.9,47.4,20c10.5,15.3,6.6,70,2.9,88.7
	c-7.3,36.5-28.1,61.6-58.7,81.3c-7.9,5.1-16.4,9.6-25.3,12.7c-113.3,25.2-230.6,42.6-347.1,34.9c-25,73.6-65.4,135.8-106.2,201.2
	c-13.4,21.4-25.2,44.8-41.6,64.2c-4.1,1.4-5.8,0.9-8,4.8c-2.3,4.1-4.4,7.1-7.8,10.3l0,3.7c-3.8,2.3-1.9,1.5-5.5,2.4l-16.5,24.4
	l-3,3.5c-4,4.8-2.2,2.4-5.1,7.2c-2.7,4.5-6.5,6.1-11.4,7.6l-9.2,1.8l-5.1,6.3c-17.4,10-31.1,29.9-44.6,44.6l-65.2,71.4l0.8,3.8
	c1.2,5.6,0.2,10.5-0.6,16.1l3.9-1.6l5.7-2l-125.2,137.9l4.5,1.7l6.8-2l1.2,3.9l-2.4,2.4l-0.4,2.1c-1,3.8-0.4,1.8-2.5,4.9
	c-2.9,4.3-2.7,9.4-2.6,14.4c-16,19.4-36.1,36.7-54.4,54c-115.7,109.3-254.3,200.8-394.2,276c-37.2,20-74.3,40.9-113.3,57.3
	l-82.9,35.3l-81.8,29c-11.4,3.9-30.7,7.6-39.9,14.6l1.8,4.4c-5.3,3-2,2.2-7.5,1.2c-5.3-0.9-8.5-0.1-13.6,1.2l-118-101.8l21.7-6.1
	c-25.5-24.8-46.5-55.6-74.1-78.1c-28.9-23.6-60.8-29.6-96.7-33.4c-45.7-4.9-87.4-3.4-133-0.7l-194.1,17.4l-0.3-3.5
	c-4.3-0.7-6.9-1.7-10.7-4c1.5-1.2,3.1-2.7,4.9-3.5c8.6-3.9,11.4-4.6,18.2-12l1.9-2.1L2097.9,2873c-3.2,3.9-7,11.1-11.9,11.8
	c-3.9,0.6-7.1,1.8-10.8,3.1c-10,3.3-20.6,3.8-28,11.3l5.8,5.6l-81.5,22.7l-237.8,62.6l-254,58.4c-5.1-6.6-11.2-9.3-18.4-12.9
	c-216.6,43.7-439.4,67.2-659.9,43.1c-6-98.4-48.4-203.4-109.9-280.3c-19.8-24.8-46.6-45.8-64.6-71.3l-1.4-2.1l102.7-93.7
	c19.4-17.3,42.5-33.9,58.5-54.4l0.5-3c-3.2-7-2.4-16.7-3.7-24.7c14-12.6,25.6-25.1,37.1-40c-59.4,13-122,26.6-182.9,28
	c-9.6,0.2-21.7,1.7-30.7-1.2c-19.6-6.2-44.6-0.5-65.8-5.8l-29.4-6c-23.4-4.8-52.3-10.4-74.1-20.2c-26.6-12-55.9-40.4-71.2-64.7
	c-20.9-33.2-33.8-88.1-33.1-127.2c0.4-20.6,4.7-40.8,9.1-60.9c15.8-41.5,38.4-83.8,72.4-113.4c48.9-31,109.7-46.8,166-58.7l104-18.5
	c31-4.6,154.2-14.3,171.1-28.2l-0.7-4.9c-2.4-19.8,1.5-35,14.2-50.6c22.9-28.2,64.8-34.3,98.5-40.3l66.6-10.8l173.6-19.2
	c-1.3,7.4-2.4,13.9-1.4,21.5c4.4-0.3,7.4-0.5,11.6-1.8c9.2-2.9,22.1-1.2,31.7-1.2c5.2,0,10.3,0.7,15.4,1.3
	c6.8,1.4,22.1-2.3,29.7-3.2l62.8-5.4l3.6-0.4c12.5-1.8,22.1-15.9,35.8-9c9.3,4.6,17.4,23.5,22.5,32.4c17.7,32.2,41.7,62.4,61.9,93.1
	c6.2,9.4,16.7,31.1,25,37.3c12.3,3.4,7.1,5.8,14.9,12.8c4.2,3.8,9.9,4.4,14.4,9l4.8-10c6.9,9.5,14,19,20.2,29
	c5.7,9.2,10,20.6,19.9,25.6c17.2,0.5,34-4.6,50.7-7.7l75.2-14l202.2-37.2l219.4-43.3c3.8,5.6,5.2,8.9,11.4,12
	c-2.7,8-9.2,5.5-9.8,14.6c9.2,4.2,20.7-0.4,31,1c11.7,1.4,31.4-4.7,43.3-6.9l132.8-26l128-24l136.1-24.8c4.1,1.5,6.3,1.4,8.7,5.2
	l7.2,2.4c16.5-5.4,35.4-7.8,52.4-11.8l213.5-41.9l236.4-46.1l378.8-71.2l144.6-25.5l294.1-12.6c-6.7-2.1-13.2-1.3-19.8-3.5l8-2.4
	l1.5-6.7c5.3-4.2,89.7-5.7,105.1-7.2c13.3-1.3,26.4-4,39.5-6.6l-3.5-4.6c-9.3-12.7-13.4-27.6-10.2-43.3
	c3.6-18.1,26.5-30.7,40.4-40.6c7.8,3.7,12.8,5.9,17.5,13.3c5.6-0.5,28.9-19.2,34.7-23c29.7-19.3,60.1-35.6,92.5-50
	c-6.6-0.4-13.4,0-19.2-3.6l0.9-3.7c17.6-7.2,33.8-17.1,50.9-25.3c15.7-7.5,31.6-10.5,44.3-23.1L4447.9,1520.5z"/>
<path class="st15" d="M1966,2911l132-38c-3.2,3.9-7,11.1-11.9,11.8c-3.9,0.6-7.1,1.8-10.8,3.1c-10,3.3-20.6,3.8-28,11.3l5.8,5.6
	l-81.5,22.7C1970,2921.7,1968.8,2916.3,1966,2911z"/>
<path class="st3" d="M1735.3,2972c25.1-1.8,55.5-14,80.1-20.7L1966,2911c2.8,5.3,4,10.7,5.4,16.5l-237.8,62.6l-0.6-0.7l-0.6-4
	l-3.9-2v-1.8c5.3-0.4,6.4,0,11-3.1L1735.3,2972z"/>
<linearGradient id="SVGID_00000157296022083809221090000000158258369285810048_" gradientUnits="userSpaceOnUse" x1="1560.1886" y1="2768.8496" x2="1551.0272" y2="2785.6501" gradientTransform="matrix(4 0 0 -4 -4620 14120)">
	<stop  offset="0" style="stop-color:#000000"/>
	<stop  offset="1" style="stop-color:#180204"/>
</linearGradient>
<path style="fill:url(#SVGID_00000157296022083809221090000000158258369285810048_);" d="M1461.1,3035.7l274.2-63.7l4.2,6.6
	c-4.6,3.1-5.7,2.6-11,3.1v1.8l3.9,2l0.6,4l0.6,0.7l-254,58.4C1474.5,3042,1468.3,3039.3,1461.1,3035.7z"/>
<path class="st23" d="M2465.3,2005.9l136.1-24.8c4.1,1.5,6.3,1.4,8.7,5.2l7.2,2.4l-287.6,53.1l-326.5,60.7l-45.2,5.6l-91.1,17.1
	c-16.6,2.9-34,7.2-50.9,6.9c31.3-13.2,71.6-16.2,105-22.8l240.3-46.4c11.7,1.4,31.4-4.7,43.3-6.9l132.8-26L2465.3,2005.9z"/>
<path class="st15" d="M1909.1,2078.4l219.4-43.3c3.8,5.6,5.2,8.9,11.4,12c-2.7,8-9.2,5.5-9.8,14.6c9.2,4.2,20.7-0.4,31,1
	l-240.3,46.4c3.9-2.5,2.4-2,6.4-3c4.2-1,4.8-3.3,7.5-6.6l-3.6-4.9l-1.2-3.7C1924.9,2082.7,1918.2,2078.9,1909.1,2078.4z"/>
<linearGradient id="SVGID_00000029037873940646734060000005151311223635182253_" gradientUnits="userSpaceOnUse" x1="2186.9509" y1="3109.6262" x2="2169.7073" y2="3070.5281" gradientTransform="matrix(4 0 0 -4 -4620 14120)">
	<stop  offset="0" style="stop-color:#000000"/>
	<stop  offset="1" style="stop-color:#3A0603"/>
</linearGradient>
<path style="fill:url(#SVGID_00000029037873940646734060000005151311223635182253_);" d="M3926.7,1767c5.3-4.2,89.7-5.7,105.1-7.2
	c13.3-1.3,26.4-4,39.5-6.6l-3.5-4.6c-9.3-12.7-13.4-27.6-10.2-43.3c3.6-18.1,26.5-30.7,40.4-40.6c7.8,3.7,12.8,5.9,17.5,13.3l-7,8.6
	c-11.1,8.3-20.9,20.5-23.5,34.5c-1.2,6.6,1.7,14.7,5.6,20c2.8,3.9,5.4,6.3,9.8,8.2c13.7,5.7,32.6,6.2,47.6,8.4l92.4,13.2
	c4.9,7.7,5.1,18.1,4.1,27.3l-0.7,3.1c-55.1-7.4-111.4-23.1-166.8-26.2c-45.4-2.5-91.1,5.6-136.6,4.5l-3.4-0.1
	c-6.7-2.1-13.2-1.3-19.8-3.5l8-2.4L3926.7,1767z"/>
<path class="st15" d="M3616.1,2144.2c21.2-1.3,43,3,61.2,14.2c24.6,15,32.8,35.3,38.9,62c6,26.4-3.1,61.1-17.8,83.8
	c-23,35.6-53.7,53.2-94.2,62.4c-22,2.6-47.3-1.6-66-14.2c-18.4-12.4-34-31.7-37.9-53.9c-6.1-34.6-2.8-64.3,18.3-93.6
	C3542.1,2172.6,3576.9,2150.3,3616.1,2144.2z"/>
<path class="st15" d="M3156.3,2278.4c24-1,47.1-1.3,69,10.3c21.8,11.6,40,31.9,46.6,56c8.2,29.6,2.3,63.8-12.3,90.4
	c-20.2,36.7-57.6,60.6-96.9,71.8c-23.9,6.4-53,2.9-74.5-9.3c-21.3-12-38.1-36.5-44.2-59.9c-8.6-32.6,2.6-64.4,19.2-92.2
	C3084.5,2309.9,3116.3,2288.7,3156.3,2278.4z"/>
<path class="st2" d="M4676.9,1537.2c43.3,4.3,87.5,16.2,129.2,28.6c16.2,4.8,32.8,8.3,48.6,14.6c16.5,3.4,37,4.9,47.4,20
	c10.5,15.3,6.6,70,2.9,88.7c-7.3,36.5-28.1,61.6-58.7,81.3c-7.9,5.1-16.4,9.6-25.3,12.7c-113.3,25.2-230.6,42.6-347.1,34.9
	c-25,73.6-65.4,135.8-106.2,201.2c-13.4,21.4-25.2,44.8-41.6,64.2c-4.1,1.4-5.8,0.9-8,4.8c-2.3,4.1-4.4,7.1-7.8,10.3l0,3.7
	c-3.8,2.3-1.9,1.5-5.5,2.4l-16.5,24.4l-3,3.5c-4,4.8-2.2,2.4-5.1,7.2c-2.7,4.5-6.5,6.1-11.4,7.6l-9.2,1.8
	c27.8-40.8,57.3-80.9,75.5-127c-56.3,55.9-119.9,103.5-185.2,148.4c-15.7,10.8-30.2,23.3-46.1,33.7l-140,83.9
	c-30.6,17.5-63.6,39.8-97.4,50.2c-3.3-0.2-4.6-0.7-7.6,0.7c-5.8,2.7-10,4.1-16.1,2.5c-4.4-1.2-5.4-1.4-9.8,0
	c-4.9,1.6-9.6,1.4-14.7,1.4l118.5-60.8c73.5-39.1,144.1-86.3,212-134.4c85.5-60.5,175.1-125.2,238.7-209.8
	c26.8-35.7,47.1-77,59.5-119.7l-203.2-16.5l0.7-3.1c1-9.2,0.8-19.6-4.1-27.3l343.9,16.6c54-0.8,107.9-6.6,161.2-15.2
	c18.7-3,39.3-5,57.1-11.4c21-7.6,45.6-20.7,60.9-37.3c23.5-25.4,24.9-61.3,21.7-94.2c-0.9-9.5-2-12.4-8.9-18.7
	c-8.3-7.1-26.3-11.3-36.7-15.7l-137.8-31.3l7.4-2.4l1.6-5.4c-4.8-3.9-7.4-5.1-13.6-6.1c-6.9-1.1-11.6-5.4-16.8-9.8L4676.9,1537.2z"
	/>
<path class="st15" d="M2673.7,2388.7c11.9,0.5,24.5,0.4,36.1,3.2c28,6.6,52.8,24.2,67.4,49c14.1,23.9,17.9,55.2,10,81.9l-1.3,4.1
	c-4.8,15.7-11.9,32.6-21.7,45.8c-28.9,38.8-67,61.9-114.6,68.4c-25.9-2-48.6-5.2-70.1-21.3c-23.7-17.9-42.5-42.5-46-72.8
	c-4.1-34.6,4.5-68.6,26.5-95.9C2589.7,2414,2626.3,2393.5,2673.7,2388.7z"/>
<path class="st19" d="M4876.3,1611c6.9,6.3,8,9.2,8.9,18.7c3.2,32.8,1.8,68.8-21.7,94.2c-15.3,16.5-39.9,29.7-60.9,37.3
	c-17.8,6.4-38.4,8.4-57.1,11.4c-53.3,8.6-107.2,14.4-161.2,15.2l-343.9-16.6l-92.4-13.2c-14.9-2.1-33.9-2.7-47.6-8.4
	c-4.4-1.8-7-4.3-9.8-8.2c-3.9-5.3-6.8-13.5-5.6-20c2.6-13.9,12.4-26.2,23.5-34.5l2.4,1.2c13.6,5.5,35.5,4.5,50.5,6.8l37.7,7.3
	l63.4,6l250.9,18.8c57.5,1.8,114.2,3.4,171.6-2.7c42.1-4.5,84.8-15.9,123.3-33.7C4831.8,1679.5,4867.2,1635.3,4876.3,1611z"/>
<path class="st15" d="M1527.7,2495.5c12.1-1.3,24.9-3.1,36.1,2.9c9.8,5.3,18.3,13.8,24.3,23c12.2,18.6,20.5,40.4,29.1,60.8
	l36.4,90.4c17.3,44.6,37.3,89.9,49.7,136.1c2.7,10.1,2.5,19.6-3.1,28.6c-14.9,24-38.1,24.8-63.3,30.8l-56.8,12.8
	c-32.4,6.7-66.4,14-99.4,15.9c-10.6,0.6-23.3,2-33.8,0.2c-10.1-1.8-17.2-8.2-22.8-16.3c-4.7-34.1,2.3-66.8,6.8-100.5
	c9.7-72,20.6-145.3,43.6-214.3C1485,2534,1496.5,2511,1527.7,2495.5z"/>
<path class="st18" d="M4447.9,1520.5l6.4,4.1c5-1.1,6.5-0.6,10.1-4.5c36,1.9,72.2-1,108.3,1.5c29.9,2.1,60.9,8,90.4,13l13.7,2.5
	l3.6,3.2c5.1,4.5,9.9,8.7,16.8,9.8c6.1,1,8.7,2.1,13.6,6.1l-1.6,5.4l-7.4,2.4l137.8,31.3c10.4,4.3,28.5,8.5,36.7,15.7
	c-9.1,24.4-44.5,68.5-68.1,79.4c-38.5,17.8-81.2,29.2-123.3,33.7c-57.4,6.1-114.1,4.5-171.6,2.7l-250.9-18.8l-63.4-6l-37.7-7.3
	c-15-2.3-36.8-1.3-50.5-6.8l-2.4-1.2l7-8.6c5.6-0.5,28.9-19.2,34.7-23c29.7-19.3,60.1-35.6,92.5-50c-6.6-0.4-13.4,0-19.2-3.6
	l0.9-3.7c17.6-7.2,33.8-17.1,50.9-25.3c15.7-7.5,31.6-10.5,44.3-23.1L4447.9,1520.5z"/>
<path class="st3" d="M4663.2,1534.7l13.7,2.5l3.6,3.2c5.1,4.5,9.9,8.7,16.8,9.8c6.1,1,8.7,2.1,13.6,6.1l-1.6,5.4l-7.4,2.4
	l-77.7-11.7c1.7-4.6,3.1-8.4,6.1-12.3C4641.7,1539.4,4652,1537.4,4663.2,1534.7z"/>
<path class="st16" d="M4447.9,1520.5l6.4,4.1c5-1.1,6.5-0.6,10.1-4.5c36,1.9,72.2-1,108.3,1.5c29.9,2.1,60.9,8,90.4,13
	c-11.2,2.7-21.5,4.7-33.1,5.3c-3,3.9-4.4,7.7-6.1,12.3c-46.8-6.6-97.5-10.6-144.8-7.5c-22.6,1.5-45.6,6.5-67.8,10.7
	c-59.8,11.3-112.7,26.5-168.9,49.7c-6.6-0.4-13.4,0-19.2-3.6l0.9-3.7c17.6-7.2,33.8-17.1,50.9-25.3c15.7-7.5,31.6-10.5,44.3-23.1
	L4447.9,1520.5z"/>
<path class="st10" d="M3866.4,2338.1c33.8-10.4,66.8-32.7,97.4-50.2l140-83.9c15.9-10.3,30.4-22.9,46.1-33.7
	c65.3-44.9,128.9-92.4,185.2-148.4c-18.3,46.1-47.7,86.2-75.5,127l-5.1,6.3c-17.4,10-31.1,29.9-44.6,44.6l-65.2,71.4l0.8,3.8
	c1.2,5.6,0.2,10.5-0.6,16.1l3.9-1.6l5.7-2l-125.2,137.9l4.5,1.7l6.8-2l1.2,3.9l-2.4,2.4l-0.4,2.1c-1,3.8-0.4,1.8-2.5,4.9
	c-2.9,4.3-2.7,9.4-2.6,14.4c-16,19.4-36.1,36.7-54.4,54c-115.7,109.3-254.3,200.8-394.2,276c-37.2,20-74.3,40.9-113.3,57.3
	l-82.9,35.3l-81.8,29c-11.4,3.9-30.7,7.6-39.9,14.6l1.8,4.4c-5.3,3-2,2.2-7.5,1.2c-5.3-0.9-8.5-0.1-13.6,1.2l-118-101.8l21.7-6.1
	c-25.5-24.8-46.5-55.6-74.1-78.1c-28.9-23.6-60.8-29.6-96.7-33.4c-45.7-4.9-87.4-3.4-133-0.7l-194.1,17.4l-0.3-3.5
	c-4.3-0.7-6.9-1.7-10.7-4c1.5-1.2,3.1-2.7,4.9-3.5c8.6-3.9,11.4-4.6,18.2-12l1.9-2.1l592.7-161.8l389.2-123.1l168.4-70.8
	c5.1,0,9.8,0.2,14.7-1.4c4.4-1.4,5.4-1.2,9.8,0c6.1,1.7,10.3,0.3,16.1-2.5C3861.9,2337.4,3863.1,2337.9,3866.4,2338.1z"/>
<path class="st3" d="M3818.3,2342.7c5.1,0,9.8,0.2,14.7-1.4c4.4-1.4,5.4-1.2,9.8,0c6.1,1.7,10.3,0.3,16.1-2.5c3-1.4,4.3-0.9,7.6-0.7
	l-186.4,83.5c-9.8,3.9-27.4,13.5-37.3,13.5l-1-2.9c3.1-2.5,5.4-4.3,9.3-5.6c6.2-2.1,11.9-3.8,17.8-6.6c-10,0-11-1.2-19-6.5
	L3818.3,2342.7z"/>
<linearGradient id="SVGID_00000132810686950345595390000006953184711177352090_" gradientUnits="userSpaceOnUse" x1="2025.1005" y1="2902.3738" x2="2017.9753" y2="2916.9814" gradientTransform="matrix(4 0 0 -4 -4620 14120)">
	<stop  offset="0" style="stop-color:#000000"/>
	<stop  offset="1" style="stop-color:#260E0B"/>
</linearGradient>
<path style="fill:url(#SVGID_00000132810686950345595390000006953184711177352090_);" d="M3260.6,2536.6l389.2-123.1
	c8,5.3,9,6.5,19,6.5c-5.9,2.8-11.6,4.6-17.8,6.6c-3.9,1.3-6.2,3-9.3,5.6l1,2.9l-339.4,109.9l-2.6-4.3c-10.6-4.5-25.4-1.6-37.3-3.6
	L3260.6,2536.6z"/>
<path class="st3" d="M2667.9,2698.4l592.7-161.8l2.9,0.5c11.8,2,26.7-0.8,37.3,3.6l2.6,4.3l-479.8,131.3l-119.7,32.3
	c-16.3,4.1-33.6,10.1-50.3,11.4c-4.3-0.7-6.9-1.7-10.7-4c1.5-1.2,3.1-2.7,4.9-3.5c8.6-3.9,11.4-4.6,18.2-12L2667.9,2698.4z"/>
<path class="st14" d="M4144.7,2271.4l0.8,3.8c1.2,5.6,0.2,10.5-0.6,16.1l3.9-1.6l5.7-2l-125.2,137.9l4.5,1.7l6.8-2l1.2,3.9l-2.4,2.4
	l-0.4,2.1c-1,3.8-0.4,1.8-2.5,4.9c-2.9,4.3-2.7,9.4-2.6,14.4c-16,19.4-36.1,36.7-54.4,54c-115.7,109.3-254.3,200.8-394.2,276
	c-37.2,20-74.3,40.9-113.3,57.3l-82.9,35.3l-81.8,29c-11.4,3.9-30.7,7.6-39.9,14.6l1.8,4.4c-5.3,3-2,2.2-7.5,1.2
	c-5.3-0.9-8.5-0.1-13.6,1.2l-118-101.8l21.7-6.1l29.2,26.7l6.9,1.2c4.3,1.1,8.5,3,13.1,2.6c12.5-1.2,28-10.4,40.1-14.5l70.6-21
	c49.7-14.9,94.2-33.6,142-53.5c24.4-10.2,49.7-18.6,73.6-29.9c46.6-22,90-48.9,134.6-74.4c132.9-75.9,256.5-167.2,369.6-270.6
	L4144.7,2271.4z"/>
<linearGradient id="SVGID_00000169539932366509561400000017049506886329967264_" gradientUnits="userSpaceOnUse" x1="2066.5647" y1="2842.9944" x2="2050.231" y2="2875.9978" gradientTransform="matrix(4 0 0 -4 -4620 14120)">
	<stop  offset="0" style="stop-color:#000001"/>
	<stop  offset="1" style="stop-color:#401418"/>
</linearGradient>
<path style="fill:url(#SVGID_00000169539932366509561400000017049506886329967264_);" d="M3180.9,2845.1
	c18.4,20.5,41.8,38.8,64.4,54.4c61.2-15.7,115.4-37.1,173.3-61.4c31.6-13.3,63.4-25,94.3-40.1c20.3-9.9,39.2-22.2,59-33.1
	c87.2-48.2,170-98.8,248.9-160.3l142.8-118.6l64-59l1.7-1.4l4.5,1.7l6.8-2l1.2,3.9l-2.4,2.4l-0.4,2.1c-1,3.8-0.4,1.8-2.5,4.9
	c-2.9,4.3-2.7,9.4-2.6,14.4c-16,19.4-36.1,36.7-54.4,54c-115.7,109.3-254.3,200.8-394.2,276c-37.2,20-74.3,40.9-113.3,57.3
	l-82.9,35.3l-81.8,29c-11.4,3.9-30.7,7.6-39.9,14.6l1.8,4.4c-5.3,3-2,2.2-7.5,1.2c-5.3-0.9-8.5-0.1-13.6,1.2l-118-101.8l21.7-6.1
	L3180.9,2845.1z"/>
<linearGradient id="SVGID_00000114776915225947612210000008955289811592462210_" gradientUnits="userSpaceOnUse" x1="1382.8981" y1="3066.302" x2="1523.0548" y2="2822.9866" gradientTransform="matrix(4 0 0 -4 -4620 14120)">
	<stop  offset="0" style="stop-color:#090201"/>
	<stop  offset="1" style="stop-color:#2A0001"/>
</linearGradient>
<path style="fill:url(#SVGID_00000114776915225947612210000008955289811592462210_);" d="M1358,1917.7l3.6-0.4
	c12.5-1.8,22.1-15.9,35.8-9c9.3,4.6,17.4,23.5,22.5,32.4c17.7,32.2,41.7,62.4,61.9,93.1c6.2,9.4,16.7,31.1,25,37.3
	c12.3,3.4,7.1,5.8,14.9,12.8c4.2,3.8,9.9,4.4,14.4,9l4.8-10c6.9,9.5,14,19,20.2,29c5.7,9.2,10,20.6,19.9,25.6
	c17.2,0.5,34-4.6,50.7-7.7l75.2-14l202.2-37.2c9.1,0.5,15.7,4.3,20.8,12.7l1.2,3.7l3.6,4.9c-2.7,3.3-3.3,5.6-7.5,6.6
	c-4,1-2.5,0.5-6.4,3c-33.4,6.5-73.7,9.5-105,22.8l-237.2,45c-68.8,12.3-137.4,22.1-205.4,38.7c-96,23.4-185,62.4-271.4,109.4
	c-3.2,5-2.8,4-1.6,9.3c2.6,11.6,11.7,19.4,19.4,28c21.5,24,43.8,42.8,71.6,59.3c53.1,31.6,111.8,54.8,171.4,70.7
	c29.5,7.9,59,12,87.2,24.6c-32.7,91.9-44.7,190.9-57.6,287.4c-3.2,24.2-1.9,53.1-7.3,76.4c-1.4,6.2-6.2,9.7-11.7,12.2
	c-7.9,3.6-19.2,4-27.8,4.8c-40,3.5-79.4-7.2-117.2-19.3c-42.9-13.7-83.9-29.9-124.5-49.4c-101.1-48.5-205.2-117.2-280.4-201.2
	c-13.4-15-24.1-33.5-36.8-49.4l-0.2-1.6l0.5-3c-3.2-7-2.4-16.7-3.7-24.7c14-12.6,25.6-25.1,37.1-40c-59.4,13-122,26.6-182.9,28
	c-9.6,0.2-21.7,1.7-30.7-1.2c-19.6-6.2-44.6-0.5-65.8-5.8l-29.4-6c-23.4-4.8-52.3-10.4-74.1-20.2c-26.6-12-55.9-40.4-71.2-64.7
	c-20.9-33.2-33.8-88.1-33.1-127.2c0.4-20.6,4.7-40.8,9.1-60.9c15.8-41.5,38.4-83.8,72.4-113.4c48.9-31,109.7-46.8,166-58.7l104-18.5
	c31-4.6,154.2-14.3,171.1-28.2l-0.7-4.9c-2.4-19.8,1.5-35,14.2-50.6c22.9-28.2,64.8-34.3,98.5-40.3l66.6-10.8l173.6-19.2
	c-1.3,7.4-2.4,13.9-1.4,21.5c4.4-0.3,7.4-0.5,11.6-1.8c9.2-2.9,22.1-1.2,31.7-1.2c5.2,0,10.3,0.7,15.4,1.3
	c6.8,1.4,22.1-2.3,29.7-3.2L1358,1917.7z"/>
<path class="st28" d="M519.8,2485.5c4.9,0.2,9.7-0.8,13.6,2.3l-4,9.7c-15.8,8.3-34,6.3-50.6,1.6l0.9-1.8c13.5-1.5,23.8-3.8,36.1-9.7
	L519.8,2485.5z"/>
<path class="st13" d="M955.6,2288.4c29.1,20,80.1,15.6,114.3,15.7l-86,68.9L955.6,2288.4z"/>
<path class="st13" d="M941,2338.1l0.8,2.7c5.4,19,15.2,38.6,18.8,57.8c-31,23.9-61,54.4-95,73.6c-10.6,6-20.7,7.2-31.8,11.1
	c-8.4,2.9-16.1,7.5-24.6,9.9c-18,5.1-37.5,7.1-55.9,10.3c-68.8,12.2-140.1,18.3-209.7,8.3c-5.1-0.7-9.4-2.2-14.1-4.1l-0.7-2.4
	l3.9-5.3c19.7-12.9,30.2-34.9,39.6-55.5l2.9,3.7c32.1,0.8,65.6,0.7,97.5-3.7c37.4-5.2,72.5-15.6,108.6-26.3
	C839.7,2401,894.5,2379,941,2338.1z"/>
<path class="st10" d="M449.3,2168l15.2,1c37.1,14,60.5,33.3,80.4,67.5c19.6,47.1,27.2,90.2,22.5,141.2l6.6,1.4l10,14.4
	c-2.5,17.8-6.4,34-11.9,51.1c-9.4,20.6-20,42.6-39.6,55.5l-3-2.6l4-9.7c-3.9-3.1-8.7-2.1-13.6-2.3l-0.1-9c-6.1,3.7-12.4,7.7-19,10.4
	c-17.8,7.1-37,2-53.6-5.8c-39.6-18.4-64.2-65-77.8-104.5c-18-52.4-6.7-108,17.3-156C401.8,2190.2,417.5,2178.8,449.3,2168z"/>
<linearGradient id="SVGID_00000049923636794048149610000005069246754666562464_" gradientUnits="userSpaceOnUse" x1="1302.0149" y1="2922.5259" x2="1285.7932" y2="2918.6719" gradientTransform="matrix(4 0 0 -4 -4620 14120)">
	<stop  offset="0" style="stop-color:#020000"/>
	<stop  offset="1" style="stop-color:#390201"/>
</linearGradient>
<path style="fill:url(#SVGID_00000049923636794048149610000005069246754666562464_);" d="M567.5,2377.8l6.6,1.4l10,14.4
	c-2.5,17.8-6.4,34-11.9,51.1c-9.4,20.6-20,42.6-39.6,55.5l-3-2.6l4-9.7c-3.9-3.1-8.7-2.1-13.6-2.3l-0.1-9
	c0.4-1.9,22.1-22.8,24.9-27.5C557.3,2428.1,563.4,2401.6,567.5,2377.8z"/>
<path class="st15" d="M441.8,2207.3c8-0.9,16.6-1.5,24.6-0.2c22.4,3.6,48,28.1,59.8,46.9c23.5,37.5,31.2,86.7,20.3,129.5
	c-8.4,32.9-26.4,54.9-55.3,71.9c-9.2,3.1-20.6,4.6-30.1,1.7c-30.1-9.3-51.7-38.5-64.8-65.5c-16.4-33.7-18.7-88.5-6.3-123.9
	C399.5,2240.8,415.7,2219.8,441.8,2207.3z"/>
<path class="st5" d="M445.9,2153l-2.5-2.5c15.4-15.2,39.7-20.5,59.8-26.7c90.2-27.7,187.4-39.4,281-50.2c24.4-2.8,47.3-8.4,72.2-8.2
	l5.8,0.1l78.8,272.7c-46.5,40.9-101.3,62.9-159.9,80.3c-36.1,10.7-71.2,21.1-108.6,26.3c-31.9,4.4-65.4,4.5-97.5,3.7l-2.9-3.7
	c5.5-17.1,9.4-33.3,11.9-51.1l-10-14.4l-6.6-1.4c4.6-51-2.9-94.1-22.5-141.2c-19.9-34.2-43.3-53.5-80.4-67.5l-15.2-1L445.9,2153z"/>
<path class="st2" d="M445.9,2153c12.7-1.9,22.4,1.2,34,6l-1.8,0.9l-9.4,3.9l0.3,2.3l-4.5,2.9l-15.2-1L445.9,2153z"/>
<path class="st16" d="M480,2159c39.3,15.1,60.3,38.2,79.2,74.9c-4-1.1-7.7-2.2-11.8-2.7l-2.4,5.4c-19.9-34.2-43.3-53.5-80.4-67.5
	l4.5-2.9l-0.3-2.3l9.4-3.9L480,2159z"/>
<path class="st28" d="M544.9,2236.6l2.4-5.4c4.1,0.6,7.9,1.6,11.8,2.7c24.9,51.6,31,102.6,24.9,159.6l-10-14.4l-6.6-1.4
	C572.1,2326.8,564.5,2283.7,544.9,2236.6z"/>
<path class="st5" d="M1358,1917.7l3.6-0.4c12.5-1.8,22.1-15.9,35.8-9c9.3,4.6,17.4,23.5,22.5,32.4c17.7,32.2,41.7,62.4,61.9,93.1
	c6.2,9.4,16.7,31.1,25,37.3c12.3,3.4,7.1,5.8,14.9,12.8c4.2,3.8,9.9,4.4,14.4,9l8.5,13.2c6,9.2,4.8,14.8,3.8,25.4
	c-5.2,2.5-2.7,2.1-7.2,2.1c-10.8,12.7-46.7,10.7-63.7,16.1c-29.1,8.8-59,13.1-88.4,20.7c-114.7,29.7-220,67.4-319.1,133.9
	c-34.2-0.1-85.2,4.3-114.3-15.7c-2.7-21-14.3-46-20.4-66.7l-55-185.4c2.5-12.9,5.5-26.7,12.8-37.8c17.7-26.7,59.8-31.2,88.8-36.8
	c66.8-13,135.3-18.8,202.9-26.1c25.9-2.8,53.1-3.8,78.6-8.8l2.1-0.4c6.8,1.4,22.1-2.3,29.7-3.2L1358,1917.7z"/>
<path class="st13" d="M1358,1917.7l3.6-0.4c12.5-1.8,22.1-15.9,35.8-9c9.3,4.6,17.4,23.5,22.5,32.4c17.7,32.2,41.7,62.4,61.9,93.1
	c6.2,9.4,16.7,31.1,25,37.3c12.3,3.4,7.1,5.8,14.9,12.8c4.2,3.8,9.9,4.4,14.4,9l8.5,13.2c6,9.2,4.8,14.8,3.8,25.4
	c-5.2,2.5-2.7,2.1-7.2,2.1c-10.8,12.7-46.7,10.7-63.7,16.1l-4-5.8c-14.4-20.8-22.2-42.7-32.6-65.5l-36.3-77.7
	c-6.4-13.9-15.4-26.3-22-40.2c-5-10.6-10.4-30.9-17.9-38.9C1362.9,1919.5,1360.2,1918.9,1358,1917.7z"/>
<path class="st3" d="M1506.8,2071c12.3,3.4,7.1,5.8,14.9,12.8c4.2,3.8,9.9,4.4,14.4,9l8.5,13.2c6,9.2,4.8,14.8,3.8,25.4
	c-5.2,2.5-2.7,2.1-7.2,2.1C1528,2114.4,1518.3,2091.2,1506.8,2071z"/>
</svg>
